<?xml version="1.0" encoding="UTF-8" standalone="no"?><svg xmlns="http://www.w3.org/2000/svg" xmlns:xlink="http://www.w3.org/1999/xlink" contentStyleType="text/css" height="558px" preserveAspectRatio="none" style="width:765px;height:558px;background:#FFFFFF;" version="1.1" viewBox="0 0 765 558" width="765px" zoomAndPan="magnify"><defs/><g><!--MD5=[f4e70ef68289585296b9045165e58692]
cluster controllers--><g id="cluster_controllers"><path d="M194.5,12.1191 L330.5,12.1191 A3.75,3.75 0 0 1 333,14.6191 L340,44.8564 L720.5,44.8564 A2.5,2.5 0 0 1 723,47.3564 L723,107.6191 A2.5,2.5 0 0 1 720.5,110.1191 L194.5,110.1191 A2.5,2.5 0 0 1 192,107.6191 L192,14.6191 A2.5,2.5 0 0 1 194.5,12.1191 " fill="#FFFFFF" style="stroke:#000000;stroke-width:1.0;"/><line style="stroke:#000000;stroke-width:1.0;" x1="192" x2="340" y1="44.8564" y2="44.8564"/><text fill="#000000" font-family="Verdana" font-size="22" font-weight="bold" lengthAdjust="spacing" textLength="135" x="196" y="36.2373">controllers</text></g><!--MD5=[a60570e4b426f702ccbb0d459e3b9417]
cluster models--><g id="cluster_models"><path d="M499.5,209.6191 L589.5,209.6191 A3.75,3.75 0 0 1 592,212.1191 L599,242.3564 L755.5,242.3564 A2.5,2.5 0 0 1 758,244.8564 L758,549.1191 A2.5,2.5 0 0 1 755.5,551.6191 L499.5,551.6191 A2.5,2.5 0 0 1 497,549.1191 L497,212.1191 A2.5,2.5 0 0 1 499.5,209.6191 " fill="#FFFFFF" style="stroke:#000000;stroke-width:1.0;"/><line style="stroke:#000000;stroke-width:1.0;" x1="497" x2="599" y1="242.3564" y2="242.3564"/><text fill="#000000" font-family="Verdana" font-size="22" font-weight="bold" lengthAdjust="spacing" textLength="89" x="501" y="233.7373">models</text></g><!--MD5=[05a9baef6bd043058c3bbdd85940c391]
entity playController--><g id="elem_playController"><rect fill="#FFFFFF" height="37.0146" rx="2.5" ry="2.5" style="stroke:#000000;stroke-width:1.0;" width="117" x="208.5" y="57.1191"/><text fill="#000000" font-family="Verdana" font-size="14" lengthAdjust="spacing" textLength="97" x="218.5" y="81.1943">playController</text></g><!--MD5=[3b15c3baf64762de6beae41fd3945220]
entity proposedCombinationController--><g id="elem_proposedCombinationController"><rect fill="#FFFFFF" height="37.0146" rx="2.5" ry="2.5" style="stroke:#000000;stroke-width:1.0;" width="244" x="463" y="57.1191"/><text fill="#000000" font-family="Verdana" font-size="14" lengthAdjust="spacing" textLength="224" x="473" y="81.1943">proposedCombinationController</text></g><!--MD5=[3cc8c711f13e618a9f246baa7cb77485]
entity session--><g id="elem_session"><rect fill="#FFFFFF" height="37.0146" rx="2.5" ry="2.5" style="stroke:#000000;stroke-width:1.0;" width="73" x="548.5" y="254.6191"/><text fill="#000000" font-family="Verdana" font-size="14" lengthAdjust="spacing" textLength="53" x="558.5" y="278.6943">session</text></g><!--MD5=[aff0e67a1692f4b0d96c087fa0872bfd]
entity registry--><g id="elem_registry"><rect fill="#FFFFFF" height="37.0146" rx="2.5" ry="2.5" style="stroke:#000000;stroke-width:1.0;" width="74" x="654" y="384.6191"/><text fill="#000000" font-family="Verdana" font-size="14" lengthAdjust="spacing" textLength="54" x="664" y="408.6943">registry</text></g><!--MD5=[60f39db9307333e30ad09f57b45aa936]
entity game--><g id="elem_game"><rect fill="#FFFFFF" height="37.0146" rx="2.5" ry="2.5" style="stroke:#000000;stroke-width:1.0;" width="58" x="561" y="384.6191"/><text fill="#000000" font-family="Verdana" font-size="14" lengthAdjust="spacing" textLength="38" x="571" y="408.6943">game</text></g><!--MD5=[7b9c26895068152a11db9149da1bdd2d]
entity proposedCombinations--><g id="elem_proposedCombinations"><rect fill="#FFFFFF" height="37.0146" rx="2.5" ry="2.5" style="stroke:#000000;stroke-width:1.0;" width="183" x="513.5" y="498.6191"/><text fill="#000000" font-family="Verdana" font-size="14" lengthAdjust="spacing" textLength="163" x="523.5" y="522.6943">proposedCombinations</text></g><!--MD5=[cbf998c5c043d318cf82a33ae439983c]
entity viewImpl--><g id="elem_viewImpl"><ellipse cx="41" cy="45.6191" fill="#FFFFFF" rx="8" ry="8" style="stroke:#000000;stroke-width:1.0;"/><path d="M41,53.6191 L41,80.6191 M28,61.6191 L54,61.6191 M41,80.6191 L28,95.6191 M41,80.6191 L54,95.6191 " fill="none" style="stroke:#000000;stroke-width:1.0;"/><text fill="#000000" font-family="Verdana" font-size="14" lengthAdjust="spacing" textLength="60" x="11" y="111.6943">viewImpl</text></g><!--MD5=[cc2c47d2497dfeaec24157be3633aadc]
link viewImpl to playController--><g id="link_viewImpl_playController"><path d="M71.01,75.6191 C104.47,75.6191 159.57,75.6191 202.84,75.6191 " fill="none" id="viewImpl-to-playController" style="stroke:#000000;stroke-width:1.0;"/><polygon fill="#000000" points="208.05,75.6191,199.05,71.6191,203.05,75.6191,199.05,79.6191,208.05,75.6191" style="stroke:#000000;stroke-width:1.0;"/><text fill="#000000" font-family="Verdana" font-size="13" lengthAdjust="spacing" textLength="101" x="89.25" y="69.689">addPropComb()</text></g><!--MD5=[3cc6c9eb5790289b64d7978a50699d6f]
link playController to proposedCombinationController--><g id="link_playController_proposedCombinationController"><path d="M325.7,75.6191 C362.68,75.6191 411.89,75.6191 457.5,75.6191 " fill="none" id="playController-to-proposedCombinationController" style="stroke:#000000;stroke-width:1.0;"/><polygon fill="#000000" points="462.76,75.6191,453.76,71.6191,457.76,75.6191,453.76,79.6191,462.76,75.6191" style="stroke:#000000;stroke-width:1.0;"/><text fill="#000000" font-family="Verdana" font-size="13" lengthAdjust="spacing" textLength="101" x="343.75" y="69.689">addPropComb()</text></g><!--MD5=[235b4adf7e6ab0a867d0f8b5c1bc9674]
link proposedCombinationController to session--><g id="link_proposedCombinationController_session"><path d="M585,94.3091 C585,129.9391 585,210.2391 585,249.5691 " fill="none" id="proposedCombinationController-to-session" style="stroke:#000000;stroke-width:1.0;"/><polygon fill="#000000" points="585,254.6091,589,245.6091,585,249.6091,581,245.6091,585,254.6091" style="stroke:#000000;stroke-width:1.0;"/><text fill="#000000" font-family="Verdana" font-size="13" lengthAdjust="spacing" textLength="101" x="586" y="158.689">addPropComb()</text><text fill="#000000" font-family="Verdana" font-size="13" lengthAdjust="spacing" textLength="83" x="595" y="174.4883">nextAttempt</text><text fill="#000000" font-family="Verdana" font-size="13" lengthAdjust="spacing" textLength="49" x="612" y="190.2876">regist()</text></g><!--MD5=[751b61c69a1b342c470f63ee712c1c84]
link session to game--><g id="link_session_game"><path d="M564.78,291.9791 C557.02,300.1391 549.07,310.4791 545,321.6191 C539.97,335.3991 539.57,340.9991 545,354.6191 C548.9,364.4091 555.89,373.3491 563.21,380.7591 " fill="none" id="session-to-game" style="stroke:#000000;stroke-width:1.0;"/><polygon fill="#000000" points="566.82,384.2791,563.1548,375.1377,563.2348,380.794,557.5785,380.8739,566.82,384.2791" style="stroke:#000000;stroke-width:1.0;"/><text fill="#000000" font-family="Verdana" font-size="13" lengthAdjust="spacing" textLength="101" x="546" y="335.689">addPropComb()</text><text fill="#000000" font-family="Verdana" font-size="13" lengthAdjust="spacing" textLength="83" x="555" y="351.4883">nextAttempt</text></g><!--MD5=[dbdecfaa6cb1599a8aec4d82bde6daa1]
link session to registry--><g id="link_session_registry"><path d="M616.65,291.8291 C628.82,299.7691 642.14,309.9791 652,321.6191 C666.46,338.6991 677,362.0491 683.45,379.2091 " fill="none" id="session-to-registry" style="stroke:#000000;stroke-width:1.0;"/><polygon fill="#000000" points="685.32,384.3191,685.9843,374.4927,683.6021,379.6235,678.4713,377.2414,685.32,384.3191" style="stroke:#000000;stroke-width:1.0;"/><text fill="#000000" font-family="Verdana" font-size="13" lengthAdjust="spacing" textLength="49" x="673" y="343.689">regist()</text></g><!--MD5=[efc360da957eeea4d29a12abad6526e9]
reverse link game to registry--><g id="link_game_registry"><path d="M624.36,403.1191 C634.23,403.1191 644.1,403.1191 653.98,403.1191 " fill="none" id="game-backto-registry" style="stroke:#000000;stroke-width:1.0;stroke-dasharray:7.0,7.0;"/><polygon fill="#000000" points="619.2,403.1191,628.2,407.1191,624.2,403.1191,628.2,399.1191,619.2,403.1191" style="stroke:#000000;stroke-width:1.0;"/></g><!--MD5=[84f475e52ebfcdedc2758951630673c9]
link game to proposedCombinations--><g id="link_game_proposedCombinations"><path d="M592.41,422.1091 C595.01,441.4991 599.14,472.3791 601.96,493.4191 " fill="none" id="game-to-proposedCombinations" style="stroke:#000000;stroke-width:1.0;"/><polygon fill="#000000" points="602.65,498.5391,605.4058,489.0837,601.9789,493.5844,597.4782,490.1575,602.65,498.5391" style="stroke:#000000;stroke-width:1.0;"/><text fill="#000000" font-family="Verdana" font-size="13" lengthAdjust="spacing" textLength="36" x="599" y="465.689">add()</text></g><!--MD5=[f2eb6d2973293be1e7cd3b424215aea3]
@startuml colaboration-propose-combination-core
!theme plain

actor viewImpl

package controllers {
    agent playController
    agent proposedCombinationController
}
package models {
    agent session
    agent registry
    agent game
    agent proposedCombinations
}

viewImpl -right-> playController :addPropComb()
playController -right-> proposedCombinationController :addPropComb()
proposedCombinationController -down-> session :addPropComb()\nnextAttempt\nregist()
session -down-> game :addPropComb()\nnextAttempt
session -down-> registry :regist()
registry .left.> game
game -down-> proposedCombinations :add()

@enduml

@startuml colaboration-propose-combination-core







<style>
  root {
    BackgroundColor white
    FontColor black
    FontName Verdana
    HyperLinkColor blue
    LineColor black
    LineThickness 1
    Margin 5
  }
  caption {
    LineThickness 0
  }
  footer {
    LineThickness 0
  }
  header {
    LineThickness 0
  }
  node {
    MaximumWidth 300
  }
  title {
    FontSize 22
    LineThickness 0
  }
</style>

skinparam ArrowLollipopColor black
skinparam BackgroundColor white
skinparam DefaultFontName Verdana
skinparam DefaultMonospacedFontName Courier
skinparam LifelineStrategy nosolid
skinparam ParticipantPadding 10
skinparam SequenceLifeLineBorderColor black
skinparam Shadowing false
skinparam UseBetaStyle true

skinparam Activity {
  BackgroundColor white
  BarColor black
  BorderColor black
  FontColor black
  FontName Verdana
}
skinparam Boundary {
  FontColor black
}
skinparam Box {
  Padding 5
}
skinparam CircledCharacter {
  FontColor black
  FontName Courier
  Radius 9
}
skinparam Class {
  BackgroundColor white
  BorderColor black
  FontColor black
  FontName Verdana
}
skinparam ClassAttribute {
  FontColor black
  FontName Verdana
}
skinparam ClassStereotype {
  FontColor black
  FontName Verdana
}
skinparam Footer {
  FontColor black
  FontName Verdana
}
skinparam Header {
  FontColor black
  FontName Verdana
}
skinparam Hyperlink {
  Color blue
}
skinparam IconPackage {
  Color black
  BackgroundColor white
}
skinparam IconPrivate {
  Color black
  BackgroundColor white
}
skinparam IconProtected {
  Color black
  BackgroundColor white
}
skinparam IconPublic {
  Color black
  BackgroundColor white
}
skinparam Note {
  FontColor black
  FontName Verdana
}
skinparam Object {
  BorderColor black
}
skinparam Package {
  BorderColor black
  FontColor black
  FontName Verdana
}
skinparam State {
  BackgroundColor white
  BorderColor black
}
skinparam StereotypeA {
  BackgroundColor white
  BorderColor black
}
skinparam StereotypeC {
  BackgroundColor white
  BorderColor black
}
skinparam StereotypeE {
  BackgroundColor white
  BorderColor black
}
skinparam StereotypeI {
  BackgroundColor white
  BorderColor black
}
skinparam StereotypeN {
  BackgroundColor white
  BorderColor black
}
skinparam UseCaseStereoType {
  FontColor black
  FontName Verdana
}

actor viewImpl

package controllers {
    agent playController
    agent proposedCombinationController
}
package models {
    agent session
    agent registry
    agent game
    agent proposedCombinations
}

viewImpl -right-> playController :addPropComb()
playController -right-> proposedCombinationController :addPropComb()
proposedCombinationController -down-> session :addPropComb()\nnextAttempt\nregist()
session -down-> game :addPropComb()\nnextAttempt
session -down-> registry :regist()
registry .left.> game
game -down-> proposedCombinations :add()

@enduml

PlantUML version 1.2022.7(Mon Aug 22 12:01:30 CDT 2022)
(GPL source distribution)
Java Runtime: Java(TM) SE Runtime Environment
JVM: Java HotSpot(TM) 64-Bit Server VM
Default Encoding: Cp1252
Language: es
Country: MX
--></g></svg>