<?xml version="1.0" encoding="UTF-8" standalone="no"?><svg xmlns="http://www.w3.org/2000/svg" xmlns:xlink="http://www.w3.org/1999/xlink" contentStyleType="text/css" height="689px" preserveAspectRatio="none" style="width:865px;height:689px;background:#FFFFFF;" version="1.1" viewBox="0 0 865 689" width="865px" zoomAndPan="magnify"><defs/><g><!--MD5=[64daa5a824998c700cfb188d1583c07e]
cluster analysis--><g id="cluster_analysis"><path d="M76.28,12.6885 L179.28,12.6885 A3.75,3.75 0 0 1 181.78,15.1885 L188.78,44.2979 L230.28,44.2979 A2.5,2.5 0 0 1 232.78,46.7979 L232.78,390.6885 A2.5,2.5 0 0 1 230.28,393.1885 L76.28,393.1885 A2.5,2.5 0 0 1 73.78,390.6885 L73.78,15.1885 A2.5,2.5 0 0 1 76.28,12.6885 " fill="#FFFFFF" style="stroke:#000000;stroke-width:1.0;"/><line style="stroke:#000000;stroke-width:1.0;" x1="73.78" x2="188.78" y1="44.2979" y2="44.2979"/><text fill="#000000" font-family="Verdana" font-size="22" font-weight="bold" lengthAdjust="spacing" textLength="102" x="77.78" y="35.1094">analysis</text></g><!--MD5=[464b8a121da435760d275ace2e6f7972]
cluster front--><g id="cluster_front"><path d="M561.28,128.6885 L625.28,128.6885 A3.75,3.75 0 0 1 627.78,131.1885 L634.78,160.2979 L721.28,160.2979 A2.5,2.5 0 0 1 723.78,162.7979 L723.78,562.6885 A2.5,2.5 0 0 1 721.28,565.1885 L561.28,565.1885 A2.5,2.5 0 0 1 558.78,562.6885 L558.78,131.1885 A2.5,2.5 0 0 1 561.28,128.6885 " fill="#FFFFFF" style="stroke:#000000;stroke-width:1.0;"/><line style="stroke:#000000;stroke-width:1.0;" x1="558.78" x2="634.78" y1="160.2979" y2="160.2979"/><text fill="#000000" font-family="Verdana" font-size="22" font-weight="bold" lengthAdjust="spacing" textLength="63" x="562.78" y="151.1094">front</text><text fill="#000000" font-family="Verdana" font-size="14" font-style="italic" lengthAdjust="spacing" textLength="109" x="590.78" y="175.293">«Text Console»</text></g><!--MD5=[47c14c564e796a575e671c2b0469a7bb]
cluster backend--><g id="cluster_backend"><path d="M40.28,425.1885 L147.28,425.1885 A3.75,3.75 0 0 1 149.78,427.6885 L156.78,456.7979 L222.28,456.7979 A2.5,2.5 0 0 1 224.78,459.2979 L224.78,679.1885 A2.5,2.5 0 0 1 222.28,681.6885 L40.28,681.6885 A2.5,2.5 0 0 1 37.78,679.1885 L37.78,427.6885 A2.5,2.5 0 0 1 40.28,425.1885 " fill="#FFFFFF" style="stroke:#000000;stroke-width:1.0;"/><line style="stroke:#000000;stroke-width:1.0;" x1="37.78" x2="156.78" y1="456.7979" y2="456.7979"/><text fill="#000000" font-family="Verdana" font-size="22" font-weight="bold" lengthAdjust="spacing" textLength="106" x="41.78" y="447.6094">backend</text><text fill="#000000" font-family="Verdana" font-size="14" font-style="italic" lengthAdjust="spacing" textLength="82" x="94.28" y="471.793">«FileWriter»</text></g><!--MD5=[36bed372667e8e2b035a3bfb59668f70]
cluster app-core--><g id="cluster_app-core"><path d="M259.28,260.6885 L370.28,260.6885 A3.75,3.75 0 0 1 372.78,263.1885 L379.78,292.2979 L524.28,292.2979 A2.5,2.5 0 0 1 526.78,294.7979 L526.78,679.6885 A2.5,2.5 0 0 1 524.28,682.1885 L259.28,682.1885 A2.5,2.5 0 0 1 256.78,679.6885 L256.78,263.1885 A2.5,2.5 0 0 1 259.28,260.6885 " fill="#FFFFFF" style="stroke:#000000;stroke-width:1.0;"/><line style="stroke:#000000;stroke-width:1.0;" x1="256.78" x2="379.78" y1="292.2979" y2="292.2979"/><text fill="#000000" font-family="Verdana" font-size="22" font-weight="bold" lengthAdjust="spacing" textLength="110" x="260.78" y="283.1094">app-core</text><text fill="#000000" font-family="Verdana" font-size="14" font-style="italic" lengthAdjust="spacing" textLength="156" x="317.78" y="307.293">«Maven dependency»</text></g><!--MD5=[b843a707a9d29bfe6172f1502199d263]
entity XView--><g id="elem_XView"><path d="M171.28,60.6885 L171.28,84.6885 M171.28,72.6885 L188.28,72.6885 " fill="none" style="stroke:#000000;stroke-width:1.0;"/><ellipse cx="200.28" cy="72.6885" fill="#FFFFFF" rx="12" ry="12" style="stroke:#000000;stroke-width:1.0;"/><text fill="#000000" font-family="Verdana" font-size="14" lengthAdjust="spacing" textLength="41" x="171.28" y="101.6836">XView</text></g><!--MD5=[a91319e7cfad8d66707571e19cb9c3d9]
entity XController--><g id="elem_XController"><ellipse cx="178.78" cy="212.6885" fill="#FFFFFF" rx="12" ry="12" style="stroke:#000000;stroke-width:1.0;"/><polygon fill="#000000" points="174.78,200.6885,180.78,195.6885,178.78,200.6885,180.78,205.6885,174.78,200.6885" style="stroke:#000000;stroke-width:1.0;"/><text fill="#000000" font-family="Verdana" font-size="14" lengthAdjust="spacing" textLength="76" x="140.78" y="241.6836">XController</text></g><!--MD5=[3d3c7c6b097889d312e80a936bff3df4]
entity XDAO--><g id="elem_XDAO"><ellipse cx="196.78" cy="345.1885" fill="#FFFFFF" rx="12" ry="12" style="stroke:#000000;stroke-width:1.0;"/><line style="stroke:#000000;stroke-width:1.0;" x1="184.78" x2="208.78" y1="359.1885" y2="359.1885"/><text fill="#000000" font-family="Verdana" font-size="14" lengthAdjust="spacing" textLength="40" x="176.78" y="374.1836">XDAO</text></g><!--MD5=[fd32a81c2404801ffd3250cd88dc7b13]
entity XModel--><g id="elem_XModel"><ellipse cx="115.78" cy="345.1885" fill="#FFFFFF" rx="12" ry="12" style="stroke:#000000;stroke-width:1.0;"/><line style="stroke:#000000;stroke-width:1.0;" x1="103.78" x2="127.78" y1="359.1885" y2="359.1885"/><text fill="#000000" font-family="Verdana" font-size="14" lengthAdjust="spacing" textLength="51" x="90.28" y="374.1836">XModel</text></g><!--MD5=[c3f30a2b90631fb01f633d049b6ed225]
entity XConsoleView--><g id="elem_XConsoleView"><path d="M630.28,200.6885 L630.28,224.6885 M630.28,212.6885 L647.28,212.6885 " fill="none" style="stroke:#000000;stroke-width:1.0;"/><ellipse cx="659.28" cy="212.6885" fill="#FFFFFF" rx="12" ry="12" style="stroke:#000000;stroke-width:1.0;"/><text fill="#000000" font-family="Verdana" font-size="14" lengthAdjust="spacing" textLength="98" x="601.78" y="241.6836">XConsoleView</text></g><!--MD5=[3c6eb9dbb232c81e763fd96b8e611316]
entity XConsole--><g id="elem_XConsole"><path d="M643.28,497.1885 L643.28,521.1885 M643.28,509.1885 L660.28,509.1885 " fill="none" style="stroke:#000000;stroke-width:1.0;"/><ellipse cx="672.28" cy="509.1885" fill="#FFFFFF" rx="12" ry="12" style="stroke:#000000;stroke-width:1.0;"/><text fill="#000000" font-family="Verdana" font-size="14" lengthAdjust="spacing" textLength="66" x="630.78" y="538.1836">XConsole</text></g><!--MD5=[321b20efe707b2af61850df35de3c316]
entity XMessage--><g id="elem_XMessage"><path d="M643.28,333.1885 L643.28,357.1885 M643.28,345.1885 L660.28,345.1885 " fill="none" style="stroke:#000000;stroke-width:1.0;"/><ellipse cx="672.28" cy="345.1885" fill="#FFFFFF" rx="12" ry="12" style="stroke:#000000;stroke-width:1.0;"/><text fill="#000000" font-family="Verdana" font-size="14" lengthAdjust="spacing" textLength="72" x="627.78" y="374.1836">XMessage</text></g><!--MD5=[9472a1ee4e0618b0b73dd6798e1c6f04]
entity XSessionImpDAO--><g id="elem_XSessionImpDAO"><ellipse cx="121.78" cy="509.1885" fill="#FFFFFF" rx="12" ry="12" style="stroke:#000000;stroke-width:1.0;"/><line style="stroke:#000000;stroke-width:1.0;" x1="109.78" x2="133.78" y1="523.1885" y2="523.1885"/><text fill="#000000" font-family="Verdana" font-size="14" lengthAdjust="spacing" textLength="120" x="61.78" y="538.1836">XSessionImpDAO</text></g><!--MD5=[1950fda03e46cac9a99987e7830495ad]
entity XGameDAO--><g id="elem_XGameDAO"><ellipse cx="111.78" cy="625.6885" fill="#FFFFFF" rx="12" ry="12" style="stroke:#000000;stroke-width:1.0;"/><line style="stroke:#000000;stroke-width:1.0;" x1="99.78" x2="123.78" y1="639.6885" y2="639.6885"/><text fill="#000000" font-family="Verdana" font-size="14" lengthAdjust="spacing" textLength="81" x="71.28" y="654.6836">XGameDAO</text></g><!--MD5=[8b1586afe2bbb1175c208ec6c91dc929]
entity CoreSessionDAO--><g id="elem_CoreSessionDAO"><ellipse cx="332.78" cy="633.4854" fill="#FFFFFF" rx="12" ry="12" style="stroke:#000000;stroke-width:1.0;"/><line style="stroke:#000000;stroke-width:1.0;" x1="320.78" x2="344.78" y1="647.4854" y2="647.4854"/><text fill="#000000" font-family="Verdana" font-size="14" lengthAdjust="spacing" textLength="119" x="273.28" y="662.4805">CoreSessionDAO</text><text fill="#000000" font-family="Verdana" font-size="14" font-style="italic" lengthAdjust="spacing" textLength="73" x="296.28" y="614.1836">«abstract»</text></g><!--MD5=[fc1ca7b7ebc9b00e1e01118923b79014]
entity CoreViews--><g id="elem_CoreViews"><path d="M453.28,340.9854 L453.28,364.9854 M453.28,352.9854 L470.28,352.9854 " fill="none" style="stroke:#000000;stroke-width:1.0;"/><ellipse cx="482.28" cy="352.9854" fill="#FFFFFF" rx="12" ry="12" style="stroke:#000000;stroke-width:1.0;"/><text fill="#000000" font-family="Verdana" font-size="14" lengthAdjust="spacing" textLength="73" x="437.28" y="381.9805">CoreViews</text><text fill="#000000" font-family="Verdana" font-size="14" font-style="italic" lengthAdjust="spacing" textLength="73" x="437.28" y="333.6836">«abstract»</text></g><!--MD5=[cf6cff4068e8dd695eebf1f0ee1ed4b8]
entity CoreControllers--><g id="elem_CoreControllers"><ellipse cx="438.78" cy="509.1885" fill="#FFFFFF" rx="12" ry="12" style="stroke:#000000;stroke-width:1.0;"/><polygon fill="#000000" points="434.78,497.1885,440.78,492.1885,438.78,497.1885,440.78,502.1885,434.78,497.1885" style="stroke:#000000;stroke-width:1.0;"/><text fill="#000000" font-family="Verdana" font-size="14" lengthAdjust="spacing" textLength="108" x="384.78" y="538.1836">CoreControllers</text></g><!--MD5=[5b9d10650593f02df21ea1864d6848c4]
entity CoreModels--><g id="elem_CoreModels"><ellipse cx="468.78" cy="625.6885" fill="#FFFFFF" rx="12" ry="12" style="stroke:#000000;stroke-width:1.0;"/><line style="stroke:#000000;stroke-width:1.0;" x1="456.78" x2="480.78" y1="639.6885" y2="639.6885"/><text fill="#000000" font-family="Verdana" font-size="14" lengthAdjust="spacing" textLength="83" x="427.28" y="654.6836">CoreModels</text></g><!--MD5=[50a2f9fbc7f4e317ae9a157602683354]
link XView to XController--><g id="link_XView_XController"><path d="M189.6,104.7885 C187.36,128.5685 183.87,165.6685 181.46,191.2385 " fill="none" id="XView-to-XController" style="stroke:#000000;stroke-width:1.0;stroke-dasharray:7.0,7.0;"/><polygon fill="#000000" points="180.96,196.5185,185.7918,187.9363,181.432,191.5408,177.8275,187.1811,180.96,196.5185" style="stroke:#000000;stroke-width:1.0;"/></g><!--MD5=[ec381c4eec30df59611508dbe01cdcf3]
link XView to XModel--><g id="link_XView_XModel"><path d="M167.08,86.1485 C151.88,90.2885 133.5,98.1185 123.78,112.6885 C80.46,177.6385 96.35,276.0685 107.92,323.9885 " fill="none" id="XView-to-XModel" style="stroke:#000000;stroke-width:1.0;stroke-dasharray:7.0,7.0;"/><polygon fill="#000000" points="109.17,329.0185,110.8946,319.3218,107.9708,324.1644,103.1281,321.2406,109.17,329.0185" style="stroke:#000000;stroke-width:1.0;"/></g><!--MD5=[b87fd9631df6affa7e778aa25e2c6d03]
link XController to XModel--><g id="link_XController_XModel"><path d="M164.12,244.8585 C162.61,247.4685 161.13,250.1185 159.78,252.6885 C147.43,276.2285 135.37,303.9485 127,324.1485 " fill="none" id="XController-to-XModel" style="stroke:#000000;stroke-width:1.0;stroke-dasharray:7.0,7.0;"/><polygon fill="#000000" points="125.06,328.8585,132.1855,322.0594,126.9637,324.2351,124.788,319.0134,125.06,328.8585" style="stroke:#000000;stroke-width:1.0;"/></g><!--MD5=[0d95fea56a75b9c17caa8f96f96ff615]
link XController to XDAO--><g id="link_XController_XDAO"><path d="M181.96,244.7185 C185,266.7585 189.59,300.0685 192.86,323.7485 " fill="none" id="XController-to-XDAO" style="stroke:#000000;stroke-width:1.0;stroke-dasharray:7.0,7.0;"/><polygon fill="#000000" points="193.57,328.9485,196.2953,319.4842,192.8829,323.9959,188.3712,320.5835,193.57,328.9485" style="stroke:#000000;stroke-width:1.0;"/></g><!--MD5=[3f8ee806e49693e05067da000670b6fb]
reverse link XView to XConsoleView--><g id="link_XView_XConsoleView"><path d="M221.46,82.2785 C309.8,84.2585 566.79,91.7785 597.78,112.6885 C626.31,131.9385 640.12,171.2085 646.31,196.4485 " fill="none" id="XView-backto-XConsoleView" style="stroke:#000000;stroke-width:1.0;stroke-dasharray:7.0,7.0;"/><polygon fill="#000000" points="216.39,82.1685,225.2962,86.3731,221.3887,82.2827,225.4791,78.3752,216.39,82.1685" style="stroke:#000000;stroke-width:1.0;"/></g><!--MD5=[cf332f38fe3a257d9f4479d4b1500e05]
reverse link XController to XConsoleView--><g id="link_XController_XConsoleView"><path d="M221.66,197.1485 C294.12,160.0185 446.06,93.5485 580.28,108.6885 C588.21,109.5785 591.52,107.7385 597.78,112.6885 C624.47,133.8185 638.66,171.8285 645.45,196.6485 " fill="none" id="XController-backto-XConsoleView" style="stroke:#000000;stroke-width:1.0;stroke-dasharray:7.0,7.0;"/><polygon fill="#000000" points="217,199.5485,226.8314,198.9631,221.4403,197.2498,223.1536,191.8586,217,199.5485" style="stroke:#000000;stroke-width:1.0;"/></g><!--MD5=[36c080a40b81db7c5ea87d9770c7bc0c]
link XConsoleView to XConsole--><g id="link_XConsoleView_XConsole"><path d="M616.01,244.7285 C613.96,247.1985 612.17,249.8485 610.78,252.6885 C581.73,311.9485 596.64,336.7185 610.78,401.1885 C617.71,432.7985 634.19,466.0685 646.95,488.6485 " fill="none" id="XConsoleView-to-XConsole" style="stroke:#000000;stroke-width:1.0;"/><polygon fill="#000000" points="649.45,493.0185,648.4508,483.2204,646.9662,488.679,641.5077,487.1945,649.45,493.0185" style="stroke:#000000;stroke-width:1.0;"/></g><!--MD5=[8ecd6ad2d97730a6eb6f9ff60d406d36]
link XConsoleView to XMessage--><g id="link_XConsoleView_XMessage"><path d="M653.07,244.7185 C655.27,266.7585 658.59,300.0685 660.95,323.7485 " fill="none" id="XConsoleView-to-XMessage" style="stroke:#000000;stroke-width:1.0;"/><polygon fill="#000000" points="661.46,328.9485,664.5393,319.5934,660.9597,323.9736,656.5794,320.3939,661.46,328.9485" style="stroke:#000000;stroke-width:1.0;"/></g><!--MD5=[317a76084bf09870edaaae53cf52c10d]
link XConsoleView to XModel--><g id="link_XConsoleView_XModel"><path d="M601.62,243.7685 C600.34,244.1085 599.05,244.4085 597.78,244.6885 C574,249.8485 180.05,239.2185 159.78,252.6885 C135.94,268.5285 124.91,300.4785 119.87,323.9185 " fill="none" id="XConsoleView-to-XModel" style="stroke:#000000;stroke-width:1.0;stroke-dasharray:7.0,7.0;"/><polygon fill="#000000" points="118.83,329.0785,124.5489,321.0601,119.8298,324.1795,116.7104,319.4604,118.83,329.0785" style="stroke:#000000;stroke-width:1.0;"/></g><!--MD5=[984596a0e28c7a4c78692c8e8c3bd23a]
reverse link XView to XConsole--><g id="link_XView_XConsole"><path d="M221.7,82.2085 C335.56,84.3385 736.32,93.1785 754.78,112.6885 C858.69,222.4785 730.19,424.5285 681.23,492.8885 " fill="none" id="XView-backto-XConsole" style="stroke:#000000;stroke-width:1.0;stroke-dasharray:7.0,7.0;"/><polygon fill="#000000" points="216.5,82.1085,225.4301,86.2622,221.4993,82.1942,225.5672,78.2633,216.5,82.1085" style="stroke:#000000;stroke-width:1.0;"/></g><!--MD5=[0dcf157d96db91a5ab5f6bcf86505fb2]
reverse link XView to XMessage--><g id="link_XView_XMessage"><path d="M221.88,82.3385 C331.04,84.8185 700.67,94.5485 717.78,112.6885 C775.09,173.4785 712.99,281.5685 680.73,328.9085 " fill="none" id="XView-backto-XMessage" style="stroke:#000000;stroke-width:1.0;stroke-dasharray:7.0,7.0;"/><polygon fill="#000000" points="216.57,82.2185,225.4762,86.4231,221.5687,82.3327,225.6591,78.4252,216.57,82.2185" style="stroke:#000000;stroke-width:1.0;"/></g><!--MD5=[836f0152388ce73659febbf82a1a998a]
link XMessage to XConsole--><g id="link_XMessage_XConsole"><path d="M663.78,377.3985 C663.78,406.5085 663.78,456.4085 663.78,487.7685 " fill="none" id="XMessage-to-XConsole" style="stroke:#000000;stroke-width:1.0;"/><polygon fill="#000000" points="663.78,493.0185,667.78,484.0185,663.78,488.0185,659.78,484.0185,663.78,493.0185" style="stroke:#000000;stroke-width:1.0;"/></g><!--MD5=[58449ffa50b29036dcc406913e261ab2]
reverse link XDAO to XSessionImpDAO--><g id="link_XDAO_XSessionImpDAO"><path d="M183.78,382.2685 C169.26,413.6285 146.03,463.8085 132.51,493.0185 " fill="none" id="XDAO-backto-XSessionImpDAO" style="stroke:#000000;stroke-width:1.0;stroke-dasharray:7.0,7.0;"/><polygon fill="#000000" points="186.03,377.3985,178.615,383.8805,183.9265,381.9345,185.8726,387.2461,186.03,377.3985" style="stroke:#000000;stroke-width:1.0;"/></g><!--MD5=[ecadcc4cae554e458c7c9ba54e7d7d9f]
reverse link XModel to XSessionImpDAO--><g id="link_XModel_XSessionImpDAO"><path d="M116.83,382.6485 C118,414.0385 119.84,463.9285 120.92,493.0185 " fill="none" id="XModel-backto-XSessionImpDAO" style="stroke:#000000;stroke-width:1.0;stroke-dasharray:7.0,7.0;"/><polygon fill="#000000" points="116.64,377.3985,112.9778,386.5411,116.8261,382.395,120.9722,386.2433,116.64,377.3985" style="stroke:#000000;stroke-width:1.0;"/></g><!--MD5=[31756b1e06ebd6c02d7ce1b43af42910]
link XSessionImpDAO to XGameDAO--><g id="link_XSessionImpDAO_XGameDAO"><path d="M119.76,541.3585 C118.17,559.5185 115.96,584.8685 114.26,604.2485 " fill="none" id="XSessionImpDAO-to-XGameDAO" style="stroke:#000000;stroke-width:1.0;"/><polygon fill="#000000" points="113.8,609.5485,118.5561,600.9241,114.2282,604.5668,110.5855,600.239,113.8,609.5485" style="stroke:#000000;stroke-width:1.0;"/></g><!--MD5=[5f123b110c0e5f95bffd6bb22e4b2b00]
reverse link XModel to XGameDAO--><g id="link_XModel_XGameDAO"><path d="M85.46,369.0985 C70.26,378.3485 53.3,391.8085 44.78,409.1885 C11.13,477.8285 11,512.6085 44.78,581.1885 C50.62,593.0285 60.63,602.9185 71.16,610.7485 " fill="none" id="XModel-backto-XGameDAO" style="stroke:#000000;stroke-width:1.0;stroke-dasharray:7.0,7.0;"/><polygon fill="#000000" points="90.11,366.3585,80.3243,367.4725,85.8,368.893,84.3795,374.3686,90.11,366.3585" style="stroke:#000000;stroke-width:1.0;"/></g><!--MD5=[f4b8b5995a7e61cb13f11fd06b70f067]
link CoreControllers to CoreModels--><g id="link_CoreControllers_CoreModels"><path d="M444.85,541.3585 C449.61,559.5185 456.25,584.8685 461.33,604.2485 " fill="none" id="CoreControllers-to-CoreModels" style="stroke:#000000;stroke-width:1.0;"/><polygon fill="#000000" points="462.72,609.5485,464.2964,599.8266,461.4468,604.7133,456.5601,601.8637,462.72,609.5485" style="stroke:#000000;stroke-width:1.0;"/></g><!--MD5=[ece19dc22fadb6ffb751cc50a4a898b1]
link CoreControllers to CoreSessionDAO--><g id="link_CoreControllers_CoreSessionDAO"><path d="M417.33,541.3585 C402.59,557.2785 382.74,578.7185 365.98,596.8285 " fill="none" id="CoreControllers-to-CoreSessionDAO" style="stroke:#000000;stroke-width:1.0;"/><polygon fill="#000000" points="362.23,600.8785,371.28,596.993,365.6273,597.2099,365.4104,591.5572,362.23,600.8785" style="stroke:#000000;stroke-width:1.0;"/></g><!--MD5=[c90e3500bfcbcca482ec118ec726b61b]
link CoreViews to CoreControllers--><g id="link_CoreViews_CoreControllers"><path d="M466.95,385.8085 C460.54,415.4585 451.06,459.3685 444.89,487.8885 " fill="none" id="CoreViews-to-CoreControllers" style="stroke:#000000;stroke-width:1.0;"/><polygon fill="#000000" points="443.78,493.0285,449.5929,485.078,444.8374,488.1416,441.7738,483.3861,443.78,493.0285" style="stroke:#000000;stroke-width:1.0;"/></g><!--MD5=[2c7b64deed23e9d0b29de4e6ed4d3010]
reverse link CoreControllers to front--><g id="link_CoreControllers_front"><path d="M425.52,488.0885 C402.85,435.4585 364.22,321.1885 419.78,252.6885 C430.13,239.9285 465.9025,232.2185 499.565,227.6785 C516.3963,225.4085 532.7,223.931 545.0347,223.011 C548.1184,222.781 550.954,222.5858 553.4877,222.4218 C554.7546,222.3398 555.946,222.2656 557.0553,222.1988 C557.6099,222.1653 558.144,222.1337 558.6567,222.1039 " fill="none" id="CoreControllers-backto-front" style="stroke:#000000;stroke-width:1.0;stroke-dasharray:7.0,7.0;"/><polygon fill="#000000" points="427.65,492.9785,427.7185,483.1299,425.6512,488.3954,420.3856,486.328,427.65,492.9785" style="stroke:#000000;stroke-width:1.0;"/></g><!--MD5=[249e86c5b84f06028b8edbcefb40f659]
link front to CoreViews--><g id="link_front_CoreViews"><path d="M558.6217,233.131 C558.5527,233.2279 558.4832,233.3253 558.4134,233.4233 C558.1342,233.8151 557.8492,234.2151 557.5585,234.623 C556.9772,235.4387 556.3734,236.2861 555.7485,237.163 C554.4987,238.9167 553.1648,240.7887 551.7584,242.7622 C548.9456,246.7093 545.8431,251.0629 542.545,255.691 C529.3525,274.2035 513.03,297.1085 499.6,315.9585 " fill="none" id="front-to-CoreViews" style="stroke:#000000;stroke-width:1.0;stroke-dasharray:7.0,7.0;"/><polygon fill="#000000" points="496.39,320.4685,504.8694,315.4586,499.2908,316.396,498.3534,310.8173,496.39,320.4685" style="stroke:#000000;stroke-width:1.0;"/></g><!--MD5=[c6c45bc22c6ece4951561101a4141060]
link front to CoreModels--><g id="link_front_CoreModels"><path d="M558.5511,221.804 C553.9056,221.8953 547.4969,222.0574 539.8525,222.3444 C524.5638,222.9185 504.3325,223.9922 483.38,225.9985 C441.475,230.011 396.685,237.7535 382.78,252.6885 C283.19,359.6585 289.75,457.6085 367.78,581.1885 C378.82,598.6685 391.32,591.8685 409.78,601.1885 C413.89,603.2585 418.14,605.4485 422.4,607.6685 " fill="none" id="front-to-CoreModels" style="stroke:#000000;stroke-width:1.0;stroke-dasharray:7.0,7.0;"/><polygon fill="#000000" points="427,610.0785,420.8956,602.3495,422.5745,607.7515,417.1725,609.4304,427,610.0785" style="stroke:#000000;stroke-width:1.0;"/></g><!--MD5=[e2b770f601fec081e9f32ff9b672ea22]
link backend to CoreSessionDAO--><g id="link_backend_CoreSessionDAO"><path d="M224.8276,534.6912 C224.9202,534.8669 225.0136,535.0434 225.1076,535.2209 C225.4838,535.9309 225.8714,536.6556 226.2699,537.3934 C227.0671,538.869 227.9083,540.3972 228.7913,541.966 C235.855,554.516 245.59,569.6585 256.78,581.1885 C262.48,587.0585 268.95,592.6485 275.65,597.8285 " fill="none" id="backend-to-CoreSessionDAO" style="stroke:#000000;stroke-width:1.0;stroke-dasharray:7.0,7.0;"/><polygon fill="#000000" points="279.85,601.0085,275.0696,592.3975,275.8569,597.9994,270.255,598.7866,279.85,601.0085" style="stroke:#000000;stroke-width:1.0;"/></g><!--MD5=[b8ae004cebc9a16782d1632ef064a2aa]
link backend to CoreModels--><g id="link_backend_CoreModels"><path d="M224.8958,540.0153 C224.9863,540.2142 225.0777,540.4137 225.1699,540.6139 C225.3542,541.0142 225.5417,541.417 225.7324,541.8222 C226.1138,542.6325 226.508,543.4519 226.915,544.2785 C233.4275,557.5035 243.235,572.5535 256.78,581.1885 C314.61,618.0485 344.47,580.2585 409.78,601.1885 C415.03,602.8685 420.36,605.0085 425.56,607.3885 " fill="none" id="backend-to-CoreModels" style="stroke:#000000;stroke-width:1.0;stroke-dasharray:7.0,7.0;"/><polygon fill="#000000" points="430.3,609.6185,423.8655,602.1621,425.7775,607.486,420.4536,609.3981,430.3,609.6185" style="stroke:#000000;stroke-width:1.0;"/></g><!--MD5=[3d78a5ccedc46b746955f92a24fffc7d]
@startuml analysis-architecture
!theme plain

package analysis{
    boundary XView
    control XController
    entity XDAO
    entity XModel
}


XView ..> XController
XView ..> XModel
XController ..> XModel
XController ..> XDAO

package front <<Text Console>> {
    boundary XConsoleView
    boundary XConsole
    boundary XMessage
}

XConsoleView .up.> XView
XConsoleView .up.> XController
XConsoleView - -> XConsole
XConsoleView - -> XMessage
XConsoleView ..> XModel
XConsole .up.> XView
XMessage .up.> XView
XMessage - -> XConsole

package backend <<FileWriter>> {
    entity XSessionImpDAO
    entity XGameDAO
}

XSessionImpDAO .up.> XDAO
XSessionImpDAO .up.> XModel
XSessionImpDAO - -> XGameDAO
XGameDAO .up.> XModel

package app-core <<Maven dependency>> {
    entity CoreSessionDAO <<abstract>>
    boundary CoreViews <<abstract>>
    control CoreControllers
    entity CoreModels
}

CoreControllers - -> CoreModels
CoreControllers - -> CoreSessionDAO
CoreViews - -> CoreControllers

front .left.> CoreControllers
front .down.> CoreViews
front .down.> CoreModels
backend ..> CoreSessionDAO
backend ..> CoreModels

@enduml

@startuml analysis-architecture







<style>
  root {
    BackgroundColor white
    FontColor black
    FontName Verdana
    HyperLinkColor blue
    LineColor black
    LineThickness 1
    Margin 5
  }
  caption {
    LineThickness 0
  }
  footer {
    LineThickness 0
  }
  header {
    LineThickness 0
  }
  node {
    MaximumWidth 300
  }
  title {
    FontSize 22
    LineThickness 0
  }
</style>

skinparam ArrowLollipopColor black
skinparam BackgroundColor white
skinparam DefaultFontName Verdana
skinparam DefaultMonospacedFontName Courier
skinparam LifelineStrategy nosolid
skinparam ParticipantPadding 10
skinparam SequenceLifeLineBorderColor black
skinparam Shadowing false
skinparam UseBetaStyle true

skinparam Activity {
  BackgroundColor white
  BarColor black
  BorderColor black
  FontColor black
  FontName Verdana
}
skinparam Boundary {
  FontColor black
}
skinparam Box {
  Padding 5
}
skinparam CircledCharacter {
  FontColor black
  FontName Courier
  Radius 9
}
skinparam Class {
  BackgroundColor white
  BorderColor black
  FontColor black
  FontName Verdana
}
skinparam ClassAttribute {
  FontColor black
  FontName Verdana
}
skinparam ClassStereotype {
  FontColor black
  FontName Verdana
}
skinparam Footer {
  FontColor black
  FontName Verdana
}
skinparam Header {
  FontColor black
  FontName Verdana
}
skinparam Hyperlink {
  Color blue
}
skinparam IconPackage {
  Color black
  BackgroundColor white
}
skinparam IconPrivate {
  Color black
  BackgroundColor white
}
skinparam IconProtected {
  Color black
  BackgroundColor white
}
skinparam IconPublic {
  Color black
  BackgroundColor white
}
skinparam Note {
  FontColor black
  FontName Verdana
}
skinparam Object {
  BorderColor black
}
skinparam Package {
  BorderColor black
  FontColor black
  FontName Verdana
}
skinparam State {
  BackgroundColor white
  BorderColor black
}
skinparam StereotypeA {
  BackgroundColor white
  BorderColor black
}
skinparam StereotypeC {
  BackgroundColor white
  BorderColor black
}
skinparam StereotypeE {
  BackgroundColor white
  BorderColor black
}
skinparam StereotypeI {
  BackgroundColor white
  BorderColor black
}
skinparam StereotypeN {
  BackgroundColor white
  BorderColor black
}
skinparam UseCaseStereoType {
  FontColor black
  FontName Verdana
}

package analysis{
    boundary XView
    control XController
    entity XDAO
    entity XModel
}


XView ..> XController
XView ..> XModel
XController ..> XModel
XController ..> XDAO

package front <<Text Console>> {
    boundary XConsoleView
    boundary XConsole
    boundary XMessage
}

XConsoleView .up.> XView
XConsoleView .up.> XController
XConsoleView - -> XConsole
XConsoleView - -> XMessage
XConsoleView ..> XModel
XConsole .up.> XView
XMessage .up.> XView
XMessage - -> XConsole

package backend <<FileWriter>> {
    entity XSessionImpDAO
    entity XGameDAO
}

XSessionImpDAO .up.> XDAO
XSessionImpDAO .up.> XModel
XSessionImpDAO - -> XGameDAO
XGameDAO .up.> XModel

package app-core <<Maven dependency>> {
    entity CoreSessionDAO <<abstract>>
    boundary CoreViews <<abstract>>
    control CoreControllers
    entity CoreModels
}

CoreControllers - -> CoreModels
CoreControllers - -> CoreSessionDAO
CoreViews - -> CoreControllers

front .left.> CoreControllers
front .down.> CoreViews
front .down.> CoreModels
backend ..> CoreSessionDAO
backend ..> CoreModels

@enduml

PlantUML version 1.2022.7(Mon Aug 22 12:01:30 CDT 2022)
(GPL source distribution)
Java Runtime: OpenJDK Runtime Environment
JVM: OpenJDK 64-Bit Server VM
Default Encoding: UTF-8
Language: en
Country: US
--></g></svg>