<?xml version="1.0" encoding="UTF-8" standalone="no"?><svg xmlns="http://www.w3.org/2000/svg" xmlns:xlink="http://www.w3.org/1999/xlink" contentStyleType="text/css" height="120px" preserveAspectRatio="none" style="width:639px;height:120px;background:#FFFFFF;" version="1.1" viewBox="0 0 639 120" width="639px" zoomAndPan="magnify"><defs/><g><!--MD5=[f4e70ef68289585296b9045165e58692]
cluster controllers--><g id="cluster_controllers"><path d="M208.5,12.1191 L344.5,12.1191 A3.75,3.75 0 0 1 347,14.6191 L354,44.8564 L359.5,44.8564 A2.5,2.5 0 0 1 362,47.3564 L362,107.6191 A2.5,2.5 0 0 1 359.5,110.1191 L208.5,110.1191 A2.5,2.5 0 0 1 206,107.6191 L206,14.6191 A2.5,2.5 0 0 1 208.5,12.1191 " fill="#FFFFFF" style="stroke:#000000;stroke-width:1.0;"/><line style="stroke:#000000;stroke-width:1.0;" x1="206" x2="354" y1="44.8564" y2="44.8564"/><text fill="#000000" font-family="Verdana" font-size="22" font-weight="bold" lengthAdjust="spacing" textLength="135" x="210" y="36.2373">controllers</text></g><!--MD5=[9be06ed98f0657ace32e5a74d13793c6]
entity startController--><g id="elem_startController"><rect fill="#FFFFFF" height="37.0146" rx="2.5" ry="2.5" style="stroke:#000000;stroke-width:1.0;" width="123" x="222.5" y="57.1191"/><text fill="#000000" font-family="Verdana" font-size="14" lengthAdjust="spacing" textLength="103" x="232.5" y="81.1943">startController</text></g><!--MD5=[cbf998c5c043d318cf82a33ae439983c]
entity viewImpl--><g id="elem_viewImpl"><ellipse cx="41" cy="45.6191" fill="#FFFFFF" rx="8" ry="8" style="stroke:#000000;stroke-width:1.0;"/><path d="M41,53.6191 L41,80.6191 M28,61.6191 L54,61.6191 M41,80.6191 L28,95.6191 M41,80.6191 L54,95.6191 " fill="none" style="stroke:#000000;stroke-width:1.0;"/><text fill="#000000" font-family="Verdana" font-size="14" lengthAdjust="spacing" textLength="60" x="11" y="111.6943">viewImpl</text></g><!--MD5=[2273169e1f5010ae4728989545ed52f9]
entity persistanceImpl--><g id="elem_persistanceImpl"><path d="M492,62.6191 C492,52.6191 557,52.6191 557,52.6191 C557,52.6191 622,52.6191 622,62.6191 L622,88.6338 C622,98.6338 557,98.6338 557,98.6338 C557,98.6338 492,98.6338 492,88.6338 L492,62.6191 " fill="#FFFFFF" style="stroke:#000000;stroke-width:1.0;"/><path d="M492,62.6191 C492,72.6191 557,72.6191 557,72.6191 C557,72.6191 622,72.6191 622,62.6191 " fill="none" style="stroke:#000000;stroke-width:1.0;"/><text fill="#000000" font-family="Verdana" font-size="14" lengthAdjust="spacing" textLength="110" x="502" y="90.6943">persistanceImpl</text></g><!--MD5=[ac9d13190a4798d9fddf3e980473b29a]
link viewImpl to startController--><g id="link_viewImpl_startController"><path d="M71.28,75.6191 C107.62,75.6191 169.6,75.6191 217.32,75.6191 " fill="none" id="viewImpl-to-startController" style="stroke:#000000;stroke-width:1.0;"/><polygon fill="#000000" points="222.47,75.6191,213.47,71.6191,217.47,75.6191,213.47,79.6191,222.47,75.6191" style="stroke:#000000;stroke-width:1.0;"/><text fill="#000000" font-family="Verdana" font-size="13" lengthAdjust="spacing" textLength="115" x="89.25" y="69.689">open(gameName)</text></g><!--MD5=[97d9c23bfa773a448d45d19c854b91ca]
link startController to persistanceImpl--><g id="link_startController_persistanceImpl"><path d="M345.61,75.6191 C387.47,75.6191 442.94,75.6191 486.55,75.6191 " fill="none" id="startController-to-persistanceImpl" style="stroke:#000000;stroke-width:1.0;"/><polygon fill="#000000" points="491.81,75.6191,482.81,71.6191,486.81,75.6191,482.81,79.6191,491.81,75.6191" style="stroke:#000000;stroke-width:1.0;"/><text fill="#000000" font-family="Verdana" font-size="13" lengthAdjust="spacing" textLength="110" x="363.75" y="69.689">load(gameName)</text></g><!--MD5=[0563b6d8c91293b89cb7d75479dd9c62]
@startuml colaboration-propose-combination-core
!theme plain

actor viewImpl
database persistanceImpl

package controllers {
    agent startController
}


viewImpl -right-> startController :open(gameName)
startController -right-> persistanceImpl :load(gameName)

@enduml

@startuml colaboration-propose-combination-core







<style>
  root {
    BackgroundColor white
    FontColor black
    FontName Verdana
    HyperLinkColor blue
    LineColor black
    LineThickness 1
    Margin 5
  }
  caption {
    LineThickness 0
  }
  footer {
    LineThickness 0
  }
  header {
    LineThickness 0
  }
  node {
    MaximumWidth 300
  }
  title {
    FontSize 22
    LineThickness 0
  }
</style>

skinparam ArrowLollipopColor black
skinparam BackgroundColor white
skinparam DefaultFontName Verdana
skinparam DefaultMonospacedFontName Courier
skinparam LifelineStrategy nosolid
skinparam ParticipantPadding 10
skinparam SequenceLifeLineBorderColor black
skinparam Shadowing false
skinparam UseBetaStyle true

skinparam Activity {
  BackgroundColor white
  BarColor black
  BorderColor black
  FontColor black
  FontName Verdana
}
skinparam Boundary {
  FontColor black
}
skinparam Box {
  Padding 5
}
skinparam CircledCharacter {
  FontColor black
  FontName Courier
  Radius 9
}
skinparam Class {
  BackgroundColor white
  BorderColor black
  FontColor black
  FontName Verdana
}
skinparam ClassAttribute {
  FontColor black
  FontName Verdana
}
skinparam ClassStereotype {
  FontColor black
  FontName Verdana
}
skinparam Footer {
  FontColor black
  FontName Verdana
}
skinparam Header {
  FontColor black
  FontName Verdana
}
skinparam Hyperlink {
  Color blue
}
skinparam IconPackage {
  Color black
  BackgroundColor white
}
skinparam IconPrivate {
  Color black
  BackgroundColor white
}
skinparam IconProtected {
  Color black
  BackgroundColor white
}
skinparam IconPublic {
  Color black
  BackgroundColor white
}
skinparam Note {
  FontColor black
  FontName Verdana
}
skinparam Object {
  BorderColor black
}
skinparam Package {
  BorderColor black
  FontColor black
  FontName Verdana
}
skinparam State {
  BackgroundColor white
  BorderColor black
}
skinparam StereotypeA {
  BackgroundColor white
  BorderColor black
}
skinparam StereotypeC {
  BackgroundColor white
  BorderColor black
}
skinparam StereotypeE {
  BackgroundColor white
  BorderColor black
}
skinparam StereotypeI {
  BackgroundColor white
  BorderColor black
}
skinparam StereotypeN {
  BackgroundColor white
  BorderColor black
}
skinparam UseCaseStereoType {
  FontColor black
  FontName Verdana
}

actor viewImpl
database persistanceImpl

package controllers {
    agent startController
}


viewImpl -right-> startController :open(gameName)
startController -right-> persistanceImpl :load(gameName)

@enduml

PlantUML version 1.2022.7(Mon Aug 22 12:01:30 CDT 2022)
(GPL source distribution)
Java Runtime: Java(TM) SE Runtime Environment
JVM: Java HotSpot(TM) 64-Bit Server VM
Default Encoding: Cp1252
Language: es
Country: MX
--></g></svg>