<?xml version="1.0" encoding="UTF-8" standalone="no"?><svg xmlns="http://www.w3.org/2000/svg" xmlns:xlink="http://www.w3.org/1999/xlink" contentStyleType="text/css" height="845px" preserveAspectRatio="none" style="width:572px;height:845px;background:#FFFFFF;" version="1.1" viewBox="0 0 572 845" width="572px" zoomAndPan="magnify"><defs/><g><!--MD5=[a60570e4b426f702ccbb0d459e3b9417]
cluster models--><g id="cluster_models"><path d="M13.5,12.1191 L103.5,12.1191 A3.75,3.75 0 0 1 106,14.6191 L113,44.8564 L562.5,44.8564 A2.5,2.5 0 0 1 565,47.3564 L565,835.6191 A2.5,2.5 0 0 1 562.5,838.1191 L13.5,838.1191 A2.5,2.5 0 0 1 11,835.6191 L11,14.6191 A2.5,2.5 0 0 1 13.5,12.1191 " fill="#FFFFFF" style="stroke:#000000;stroke-width:1.0;"/><line style="stroke:#000000;stroke-width:1.0;" x1="11" x2="113" y1="44.8564" y2="44.8564"/><text fill="#000000" font-family="Verdana" font-size="22" font-weight="bold" lengthAdjust="spacing" textLength="89" x="15" y="36.2373">models</text></g><!--MD5=[2ca1536628238a7dc78c5d90808014f9]
class Session--><g id="elem_Session"><rect codeLine="5" fill="#FFFFFF" height="44" id="Session" rx="2.5" ry="2.5" style="stroke:#000000;stroke-width:1.0;" width="83" x="210.5" y="57.1191"/><ellipse cx="223.5" cy="71.1191" fill="#FFFFFF" rx="9" ry="9" style="stroke:#000000;stroke-width:1.0;"/><path d="M226.2656,66.9941 Q226.4219,66.7754 226.6094,66.666 Q226.7969,66.5566 227.0156,66.5566 Q227.3906,66.5566 227.625,66.8223 Q227.8594,67.0723 227.8594,67.6816 L227.8594,69.1348 Q227.8594,69.7441 227.625,70.0098 Q227.3906,70.2754 227.0156,70.2754 Q226.6719,70.2754 226.4688,70.0723 Q226.2656,69.8848 226.1563,69.3691 Q226.1094,69.0098 225.9219,68.8223 Q225.5938,68.4473 224.9844,68.2285 Q224.375,68.0098 223.75,68.0098 Q222.9844,68.0098 222.3438,68.3379 Q221.7188,68.666 221.2188,69.416 Q220.7344,70.166 220.7344,71.1973 L220.7344,72.291 Q220.7344,73.5254 221.625,74.3535 Q222.5156,75.166 224.1094,75.166 Q225.0469,75.166 225.7031,74.916 Q226.0938,74.7598 226.5156,74.3223 Q226.7813,74.0566 226.9219,73.9785 Q227.0781,73.9004 227.2813,73.9004 Q227.6094,73.9004 227.8594,74.166 Q228.125,74.416 228.125,74.7598 Q228.125,75.1035 227.7813,75.5098 Q227.2813,76.0879 226.4844,76.416 Q225.4063,76.8691 224.1094,76.8691 Q222.5938,76.8691 221.3906,76.2441 Q220.4063,75.7441 219.7188,74.6816 Q219.0313,73.6035 219.0313,72.3223 L219.0313,71.166 Q219.0313,69.8379 219.6406,68.6973 Q220.2656,67.541 221.3594,66.9316 Q222.4531,66.3066 223.6875,66.3066 Q224.4219,66.3066 225.0625,66.4785 Q225.7188,66.6348 226.2656,66.9941 Z " fill="#000000"/><text fill="#000000" font-family="Verdana" font-size="14" lengthAdjust="spacing" textLength="55" x="235.5" y="76.687">Session</text><line style="stroke:#000000;stroke-width:1.0;" x1="211.5" x2="292.5" y1="85.1191" y2="85.1191"/><line style="stroke:#000000;stroke-width:1.0;" x1="211.5" x2="292.5" y1="93.1191" y2="93.1191"/></g><!--MD5=[60d6b92408f98aed8df94d5c6e04aa63]
class State--><g id="elem_State"><rect codeLine="6" fill="#FFFFFF" height="44" id="State" rx="2.5" ry="2.5" style="stroke:#000000;stroke-width:1.0;" width="66" x="79" y="162.1191"/><ellipse cx="92" cy="176.1191" fill="#FFFFFF" rx="9" ry="9" style="stroke:#000000;stroke-width:1.0;"/><path d="M94.7656,171.9941 Q94.9219,171.7754 95.1094,171.666 Q95.2969,171.5566 95.5156,171.5566 Q95.8906,171.5566 96.125,171.8223 Q96.3594,172.0723 96.3594,172.6816 L96.3594,174.1348 Q96.3594,174.7441 96.125,175.0098 Q95.8906,175.2754 95.5156,175.2754 Q95.1719,175.2754 94.9688,175.0723 Q94.7656,174.8848 94.6563,174.3691 Q94.6094,174.0098 94.4219,173.8223 Q94.0938,173.4473 93.4844,173.2285 Q92.875,173.0098 92.25,173.0098 Q91.4844,173.0098 90.8438,173.3379 Q90.2188,173.666 89.7188,174.416 Q89.2344,175.166 89.2344,176.1973 L89.2344,177.291 Q89.2344,178.5254 90.125,179.3535 Q91.0156,180.166 92.6094,180.166 Q93.5469,180.166 94.2031,179.916 Q94.5938,179.7598 95.0156,179.3223 Q95.2813,179.0566 95.4219,178.9785 Q95.5781,178.9004 95.7813,178.9004 Q96.1094,178.9004 96.3594,179.166 Q96.625,179.416 96.625,179.7598 Q96.625,180.1035 96.2813,180.5098 Q95.7813,181.0879 94.9844,181.416 Q93.9063,181.8691 92.6094,181.8691 Q91.0938,181.8691 89.8906,181.2441 Q88.9063,180.7441 88.2188,179.6816 Q87.5313,178.6035 87.5313,177.3223 L87.5313,176.166 Q87.5313,174.8379 88.1406,173.6973 Q88.7656,172.541 89.8594,171.9316 Q90.9531,171.3066 92.1875,171.3066 Q92.9219,171.3066 93.5625,171.4785 Q94.2188,171.6348 94.7656,171.9941 Z " fill="#000000"/><text fill="#000000" font-family="Verdana" font-size="14" lengthAdjust="spacing" textLength="38" x="104" y="181.687">State</text><line style="stroke:#000000;stroke-width:1.0;" x1="80" x2="144" y1="190.1191" y2="190.1191"/><line style="stroke:#000000;stroke-width:1.0;" x1="80" x2="144" y1="198.1191" y2="198.1191"/></g><!--MD5=[167506e288131cdf3986fedef83acd94]
class StateValue--><g id="elem_StateValue"><rect codeLine="7" fill="#FFFFFF" height="44" id="StateValue" rx="2.5" ry="2.5" style="stroke:#000000;stroke-width:1.0;" width="104" x="27" y="283.1191"/><ellipse cx="40" cy="297.1191" fill="#FFFFFF" rx="9" ry="9" style="stroke:#000000;stroke-width:1.0;"/><path d="M38.8594,297.916 L38.8594,300.416 L43.1875,300.416 L43.1875,299.4941 Q43.1875,298.8848 43.4219,298.6191 Q43.6719,298.3535 44.0469,298.3535 Q44.4219,298.3535 44.6563,298.6191 Q44.8906,298.8848 44.8906,299.4941 L44.8906,302.1191 L36.8906,302.1191 Q36.2656,302.1191 36,301.8848 Q35.75,301.6504 35.75,301.2598 Q35.75,300.8848 36.0156,300.6504 Q36.2813,300.416 36.8906,300.416 L37.1563,300.416 L37.1563,293.7598 L36.8906,293.7598 Q36.2656,293.7598 36,293.5254 Q35.75,293.291 35.75,292.9004 Q35.75,292.5254 36,292.291 Q36.2656,292.0566 36.8906,292.0566 L44.5156,292.0566 L44.5156,294.6504 Q44.5156,295.2598 44.2813,295.5254 Q44.0625,295.7754 43.6719,295.7754 Q43.2969,295.7754 43.0625,295.5254 Q42.8281,295.2598 42.8281,294.6504 L42.8281,293.7598 L38.8594,293.7598 L38.8594,296.2129 L40.3438,296.2129 Q40.3438,295.5566 40.4688,295.3691 Q40.7344,294.9629 41.2031,294.9629 Q41.5781,294.9629 41.8125,295.2285 Q42.0469,295.4785 42.0469,296.0879 L42.0469,298.0566 Q42.0469,298.6035 41.9219,298.791 Q41.6563,299.1816 41.2031,299.1816 Q40.7344,299.1816 40.4688,298.7754 Q40.3438,298.5879 40.3438,297.916 L38.8594,297.916 Z " fill="#000000"/><text fill="#000000" font-family="Verdana" font-size="14" lengthAdjust="spacing" textLength="76" x="52" y="302.687">StateValue</text><line style="stroke:#000000;stroke-width:1.0;" x1="28" x2="130" y1="311.1191" y2="311.1191"/><line style="stroke:#000000;stroke-width:1.0;" x1="28" x2="130" y1="319.1191" y2="319.1191"/></g><!--MD5=[b6dcce5e5ef3c84b0b048d11301373dd]
class Game--><g id="elem_Game"><rect codeLine="8" fill="#FFFFFF" height="44" id="Game" rx="2.5" ry="2.5" style="stroke:#000000;stroke-width:1.0;" width="68" x="452" y="283.1191"/><ellipse cx="465" cy="297.1191" fill="#FFFFFF" rx="9" ry="9" style="stroke:#000000;stroke-width:1.0;"/><path d="M467.7656,292.9941 Q467.9219,292.7754 468.1094,292.666 Q468.2969,292.5566 468.5156,292.5566 Q468.8906,292.5566 469.125,292.8223 Q469.3594,293.0723 469.3594,293.6816 L469.3594,295.1348 Q469.3594,295.7441 469.125,296.0098 Q468.8906,296.2754 468.5156,296.2754 Q468.1719,296.2754 467.9688,296.0723 Q467.7656,295.8848 467.6563,295.3691 Q467.6094,295.0098 467.4219,294.8223 Q467.0938,294.4473 466.4844,294.2285 Q465.875,294.0098 465.25,294.0098 Q464.4844,294.0098 463.8438,294.3379 Q463.2188,294.666 462.7188,295.416 Q462.2344,296.166 462.2344,297.1973 L462.2344,298.291 Q462.2344,299.5254 463.125,300.3535 Q464.0156,301.166 465.6094,301.166 Q466.5469,301.166 467.2031,300.916 Q467.5938,300.7598 468.0156,300.3223 Q468.2813,300.0566 468.4219,299.9785 Q468.5781,299.9004 468.7813,299.9004 Q469.1094,299.9004 469.3594,300.166 Q469.625,300.416 469.625,300.7598 Q469.625,301.1035 469.2813,301.5098 Q468.7813,302.0879 467.9844,302.416 Q466.9063,302.8691 465.6094,302.8691 Q464.0938,302.8691 462.8906,302.2441 Q461.9063,301.7441 461.2188,300.6816 Q460.5313,299.6035 460.5313,298.3223 L460.5313,297.166 Q460.5313,295.8379 461.1406,294.6973 Q461.7656,293.541 462.8594,292.9316 Q463.9531,292.3066 465.1875,292.3066 Q465.9219,292.3066 466.5625,292.4785 Q467.2188,292.6348 467.7656,292.9941 Z " fill="#000000"/><text fill="#000000" font-family="Verdana" font-size="14" lengthAdjust="spacing" textLength="40" x="477" y="302.687">Game</text><line style="stroke:#000000;stroke-width:1.0;" x1="453" x2="519" y1="311.1191" y2="311.1191"/><line style="stroke:#000000;stroke-width:1.0;" x1="453" x2="519" y1="319.1191" y2="319.1191"/></g><!--MD5=[3dfa3f2a47c42e7badf1c5a380940d73]
class Registry--><g id="elem_Registry"><rect codeLine="9" fill="#FFFFFF" height="44" id="Registry" rx="2.5" ry="2.5" style="stroke:#000000;stroke-width:1.0;" width="86" x="209" y="162.1191"/><ellipse cx="222" cy="176.1191" fill="#FFFFFF" rx="9" ry="9" style="stroke:#000000;stroke-width:1.0;"/><path d="M224.7656,171.9941 Q224.9219,171.7754 225.1094,171.666 Q225.2969,171.5566 225.5156,171.5566 Q225.8906,171.5566 226.125,171.8223 Q226.3594,172.0723 226.3594,172.6816 L226.3594,174.1348 Q226.3594,174.7441 226.125,175.0098 Q225.8906,175.2754 225.5156,175.2754 Q225.1719,175.2754 224.9688,175.0723 Q224.7656,174.8848 224.6563,174.3691 Q224.6094,174.0098 224.4219,173.8223 Q224.0938,173.4473 223.4844,173.2285 Q222.875,173.0098 222.25,173.0098 Q221.4844,173.0098 220.8438,173.3379 Q220.2188,173.666 219.7188,174.416 Q219.2344,175.166 219.2344,176.1973 L219.2344,177.291 Q219.2344,178.5254 220.125,179.3535 Q221.0156,180.166 222.6094,180.166 Q223.5469,180.166 224.2031,179.916 Q224.5938,179.7598 225.0156,179.3223 Q225.2813,179.0566 225.4219,178.9785 Q225.5781,178.9004 225.7813,178.9004 Q226.1094,178.9004 226.3594,179.166 Q226.625,179.416 226.625,179.7598 Q226.625,180.1035 226.2813,180.5098 Q225.7813,181.0879 224.9844,181.416 Q223.9063,181.8691 222.6094,181.8691 Q221.0938,181.8691 219.8906,181.2441 Q218.9063,180.7441 218.2188,179.6816 Q217.5313,178.6035 217.5313,177.3223 L217.5313,176.166 Q217.5313,174.8379 218.1406,173.6973 Q218.7656,172.541 219.8594,171.9316 Q220.9531,171.3066 222.1875,171.3066 Q222.9219,171.3066 223.5625,171.4785 Q224.2188,171.6348 224.7656,171.9941 Z " fill="#000000"/><text fill="#000000" font-family="Verdana" font-size="14" lengthAdjust="spacing" textLength="58" x="234" y="181.687">Registry</text><line style="stroke:#000000;stroke-width:1.0;" x1="210" x2="294" y1="190.1191" y2="190.1191"/><line style="stroke:#000000;stroke-width:1.0;" x1="210" x2="294" y1="198.1191" y2="198.1191"/></g><!--MD5=[b8338156e8cd96c783f5ffc7d8021ea7]
class Memento--><g id="elem_Memento"><rect codeLine="10" fill="#FFFFFF" height="44" id="Memento" rx="2.5" ry="2.5" style="stroke:#000000;stroke-width:1.0;" width="92" x="27" y="388.1191"/><ellipse cx="40" cy="402.1191" fill="#FFFFFF" rx="9" ry="9" style="stroke:#000000;stroke-width:1.0;"/><path d="M42.7656,397.9941 Q42.9219,397.7754 43.1094,397.666 Q43.2969,397.5566 43.5156,397.5566 Q43.8906,397.5566 44.125,397.8223 Q44.3594,398.0723 44.3594,398.6816 L44.3594,400.1348 Q44.3594,400.7441 44.125,401.0098 Q43.8906,401.2754 43.5156,401.2754 Q43.1719,401.2754 42.9688,401.0723 Q42.7656,400.8848 42.6563,400.3691 Q42.6094,400.0098 42.4219,399.8223 Q42.0938,399.4473 41.4844,399.2285 Q40.875,399.0098 40.25,399.0098 Q39.4844,399.0098 38.8438,399.3379 Q38.2188,399.666 37.7188,400.416 Q37.2344,401.166 37.2344,402.1973 L37.2344,403.291 Q37.2344,404.5254 38.125,405.3535 Q39.0156,406.166 40.6094,406.166 Q41.5469,406.166 42.2031,405.916 Q42.5938,405.7598 43.0156,405.3223 Q43.2813,405.0566 43.4219,404.9785 Q43.5781,404.9004 43.7813,404.9004 Q44.1094,404.9004 44.3594,405.166 Q44.625,405.416 44.625,405.7598 Q44.625,406.1035 44.2813,406.5098 Q43.7813,407.0879 42.9844,407.416 Q41.9063,407.8691 40.6094,407.8691 Q39.0938,407.8691 37.8906,407.2441 Q36.9063,406.7441 36.2188,405.6816 Q35.5313,404.6035 35.5313,403.3223 L35.5313,402.166 Q35.5313,400.8379 36.1406,399.6973 Q36.7656,398.541 37.8594,397.9316 Q38.9531,397.3066 40.1875,397.3066 Q40.9219,397.3066 41.5625,397.4785 Q42.2188,397.6348 42.7656,397.9941 Z " fill="#000000"/><text fill="#000000" font-family="Verdana" font-size="14" lengthAdjust="spacing" textLength="64" x="52" y="407.687">Memento</text><line style="stroke:#000000;stroke-width:1.0;" x1="28" x2="118" y1="416.1191" y2="416.1191"/><line style="stroke:#000000;stroke-width:1.0;" x1="28" x2="118" y1="424.1191" y2="424.1191"/></g><!--MD5=[2741598bdf59a7d7e0d5c97658fd3022]
class Result--><g id="elem_Result"><rect codeLine="11" fill="#FFFFFF" height="44" id="Result" rx="2.5" ry="2.5" style="stroke:#000000;stroke-width:1.0;" width="72" x="440" y="388.1191"/><ellipse cx="453" cy="402.1191" fill="#FFFFFF" rx="9" ry="9" style="stroke:#000000;stroke-width:1.0;"/><path d="M455.7656,397.9941 Q455.9219,397.7754 456.1094,397.666 Q456.2969,397.5566 456.5156,397.5566 Q456.8906,397.5566 457.125,397.8223 Q457.3594,398.0723 457.3594,398.6816 L457.3594,400.1348 Q457.3594,400.7441 457.125,401.0098 Q456.8906,401.2754 456.5156,401.2754 Q456.1719,401.2754 455.9688,401.0723 Q455.7656,400.8848 455.6563,400.3691 Q455.6094,400.0098 455.4219,399.8223 Q455.0938,399.4473 454.4844,399.2285 Q453.875,399.0098 453.25,399.0098 Q452.4844,399.0098 451.8438,399.3379 Q451.2188,399.666 450.7188,400.416 Q450.2344,401.166 450.2344,402.1973 L450.2344,403.291 Q450.2344,404.5254 451.125,405.3535 Q452.0156,406.166 453.6094,406.166 Q454.5469,406.166 455.2031,405.916 Q455.5938,405.7598 456.0156,405.3223 Q456.2813,405.0566 456.4219,404.9785 Q456.5781,404.9004 456.7813,404.9004 Q457.1094,404.9004 457.3594,405.166 Q457.625,405.416 457.625,405.7598 Q457.625,406.1035 457.2813,406.5098 Q456.7813,407.0879 455.9844,407.416 Q454.9063,407.8691 453.6094,407.8691 Q452.0938,407.8691 450.8906,407.2441 Q449.9063,406.7441 449.2188,405.6816 Q448.5313,404.6035 448.5313,403.3223 L448.5313,402.166 Q448.5313,400.8379 449.1406,399.6973 Q449.7656,398.541 450.8594,397.9316 Q451.9531,397.3066 453.1875,397.3066 Q453.9219,397.3066 454.5625,397.4785 Q455.2188,397.6348 455.7656,397.9941 Z " fill="#000000"/><text fill="#000000" font-family="Verdana" font-size="14" lengthAdjust="spacing" textLength="44" x="465" y="407.687">Result</text><line style="stroke:#000000;stroke-width:1.0;" x1="441" x2="511" y1="416.1191" y2="416.1191"/><line style="stroke:#000000;stroke-width:1.0;" x1="441" x2="511" y1="424.1191" y2="424.1191"/></g><!--MD5=[28491d17d5ee38c9c116625a5ffc259a]
class Combination--><g id="elem_Combination"><rect codeLine="12" fill="#FFFFFF" height="44" id="Combination" rx="2.5" ry="2.5" style="stroke:#000000;stroke-width:1.0;" width="116" x="140" y="657.1191"/><ellipse cx="153" cy="671.1191" fill="#FFFFFF" rx="9" ry="9" style="stroke:#000000;stroke-width:1.0;"/><path d="M155.7656,666.9941 Q155.9219,666.7754 156.1094,666.666 Q156.2969,666.5566 156.5156,666.5566 Q156.8906,666.5566 157.125,666.8223 Q157.3594,667.0723 157.3594,667.6816 L157.3594,669.1348 Q157.3594,669.7441 157.125,670.0098 Q156.8906,670.2754 156.5156,670.2754 Q156.1719,670.2754 155.9688,670.0723 Q155.7656,669.8848 155.6563,669.3691 Q155.6094,669.0098 155.4219,668.8223 Q155.0938,668.4473 154.4844,668.2285 Q153.875,668.0098 153.25,668.0098 Q152.4844,668.0098 151.8438,668.3379 Q151.2188,668.666 150.7188,669.416 Q150.2344,670.166 150.2344,671.1973 L150.2344,672.291 Q150.2344,673.5254 151.125,674.3535 Q152.0156,675.166 153.6094,675.166 Q154.5469,675.166 155.2031,674.916 Q155.5938,674.7598 156.0156,674.3223 Q156.2813,674.0566 156.4219,673.9785 Q156.5781,673.9004 156.7813,673.9004 Q157.1094,673.9004 157.3594,674.166 Q157.625,674.416 157.625,674.7598 Q157.625,675.1035 157.2813,675.5098 Q156.7813,676.0879 155.9844,676.416 Q154.9063,676.8691 153.6094,676.8691 Q152.0938,676.8691 150.8906,676.2441 Q149.9063,675.7441 149.2188,674.6816 Q148.5313,673.6035 148.5313,672.3223 L148.5313,671.166 Q148.5313,669.8379 149.1406,668.6973 Q149.7656,667.541 150.8594,666.9316 Q151.9531,666.3066 153.1875,666.3066 Q153.9219,666.3066 154.5625,666.4785 Q155.2188,666.6348 155.7656,666.9941 Z " fill="#000000"/><text fill="#000000" font-family="Verdana" font-size="14" lengthAdjust="spacing" textLength="88" x="165" y="676.687">Combination</text><line style="stroke:#000000;stroke-width:1.0;" x1="141" x2="255" y1="685.1191" y2="685.1191"/><line style="stroke:#000000;stroke-width:1.0;" x1="141" x2="255" y1="693.1191" y2="693.1191"/></g><!--MD5=[cf489b19c51ee25e76ddca093e62e620]
class ProposedCombination--><g id="elem_ProposedCombination"><rect codeLine="13" fill="#FFFFFF" height="44" id="ProposedCombination" rx="2.5" ry="2.5" style="stroke:#000000;stroke-width:1.0;" width="182" x="100" y="536.1191"/><ellipse cx="113" cy="550.1191" fill="#FFFFFF" rx="9" ry="9" style="stroke:#000000;stroke-width:1.0;"/><path d="M115.7656,545.9941 Q115.9219,545.7754 116.1094,545.666 Q116.2969,545.5566 116.5156,545.5566 Q116.8906,545.5566 117.125,545.8223 Q117.3594,546.0723 117.3594,546.6816 L117.3594,548.1348 Q117.3594,548.7441 117.125,549.0098 Q116.8906,549.2754 116.5156,549.2754 Q116.1719,549.2754 115.9688,549.0723 Q115.7656,548.8848 115.6563,548.3691 Q115.6094,548.0098 115.4219,547.8223 Q115.0938,547.4473 114.4844,547.2285 Q113.875,547.0098 113.25,547.0098 Q112.4844,547.0098 111.8438,547.3379 Q111.2188,547.666 110.7188,548.416 Q110.2344,549.166 110.2344,550.1973 L110.2344,551.291 Q110.2344,552.5254 111.125,553.3535 Q112.0156,554.166 113.6094,554.166 Q114.5469,554.166 115.2031,553.916 Q115.5938,553.7598 116.0156,553.3223 Q116.2813,553.0566 116.4219,552.9785 Q116.5781,552.9004 116.7813,552.9004 Q117.1094,552.9004 117.3594,553.166 Q117.625,553.416 117.625,553.7598 Q117.625,554.1035 117.2813,554.5098 Q116.7813,555.0879 115.9844,555.416 Q114.9063,555.8691 113.6094,555.8691 Q112.0938,555.8691 110.8906,555.2441 Q109.9063,554.7441 109.2188,553.6816 Q108.5313,552.6035 108.5313,551.3223 L108.5313,550.166 Q108.5313,548.8379 109.1406,547.6973 Q109.7656,546.541 110.8594,545.9316 Q111.9531,545.3066 113.1875,545.3066 Q113.9219,545.3066 114.5625,545.4785 Q115.2188,545.6348 115.7656,545.9941 Z " fill="#000000"/><text fill="#000000" font-family="Verdana" font-size="14" lengthAdjust="spacing" textLength="154" x="125" y="555.687">ProposedCombination</text><line style="stroke:#000000;stroke-width:1.0;" x1="101" x2="281" y1="564.1191" y2="564.1191"/><line style="stroke:#000000;stroke-width:1.0;" x1="101" x2="281" y1="572.1191" y2="572.1191"/></g><!--MD5=[e370ee5c0c15ce04544d5f5a73174d72]
class SecretCombination--><g id="elem_SecretCombination"><rect codeLine="14" fill="#FFFFFF" height="44" id="SecretCombination" rx="2.5" ry="2.5" style="stroke:#000000;stroke-width:1.0;" width="161" x="387.5" y="462.1191"/><ellipse cx="400.5" cy="476.1191" fill="#FFFFFF" rx="9" ry="9" style="stroke:#000000;stroke-width:1.0;"/><path d="M403.2656,471.9941 Q403.4219,471.7754 403.6094,471.666 Q403.7969,471.5566 404.0156,471.5566 Q404.3906,471.5566 404.625,471.8223 Q404.8594,472.0723 404.8594,472.6816 L404.8594,474.1348 Q404.8594,474.7441 404.625,475.0098 Q404.3906,475.2754 404.0156,475.2754 Q403.6719,475.2754 403.4688,475.0723 Q403.2656,474.8848 403.1563,474.3691 Q403.1094,474.0098 402.9219,473.8223 Q402.5938,473.4473 401.9844,473.2285 Q401.375,473.0098 400.75,473.0098 Q399.9844,473.0098 399.3438,473.3379 Q398.7188,473.666 398.2188,474.416 Q397.7344,475.166 397.7344,476.1973 L397.7344,477.291 Q397.7344,478.5254 398.625,479.3535 Q399.5156,480.166 401.1094,480.166 Q402.0469,480.166 402.7031,479.916 Q403.0938,479.7598 403.5156,479.3223 Q403.7813,479.0566 403.9219,478.9785 Q404.0781,478.9004 404.2813,478.9004 Q404.6094,478.9004 404.8594,479.166 Q405.125,479.416 405.125,479.7598 Q405.125,480.1035 404.7813,480.5098 Q404.2813,481.0879 403.4844,481.416 Q402.4063,481.8691 401.1094,481.8691 Q399.5938,481.8691 398.3906,481.2441 Q397.4063,480.7441 396.7188,479.6816 Q396.0313,478.6035 396.0313,477.3223 L396.0313,476.166 Q396.0313,474.8379 396.6406,473.6973 Q397.2656,472.541 398.3594,471.9316 Q399.4531,471.3066 400.6875,471.3066 Q401.4219,471.3066 402.0625,471.4785 Q402.7188,471.6348 403.2656,471.9941 Z " fill="#000000"/><text fill="#000000" font-family="Verdana" font-size="14" lengthAdjust="spacing" textLength="133" x="412.5" y="481.687">SecretCombination</text><line style="stroke:#000000;stroke-width:1.0;" x1="388.5" x2="547.5" y1="490.1191" y2="490.1191"/><line style="stroke:#000000;stroke-width:1.0;" x1="388.5" x2="547.5" y1="498.1191" y2="498.1191"/></g><!--MD5=[c4df9b95f6f4e4e1c32bb5a44abd175a]
class Colors--><g id="elem_Colors"><rect codeLine="15" fill="#FFFFFF" height="44" id="Colors" rx="2.5" ry="2.5" style="stroke:#000000;stroke-width:1.0;" width="73" x="228.5" y="778.1191"/><ellipse cx="241.5" cy="792.1191" fill="#FFFFFF" rx="9" ry="9" style="stroke:#000000;stroke-width:1.0;"/><path d="M240.3594,792.916 L240.3594,795.416 L244.6875,795.416 L244.6875,794.4941 Q244.6875,793.8848 244.9219,793.6191 Q245.1719,793.3535 245.5469,793.3535 Q245.9219,793.3535 246.1563,793.6191 Q246.3906,793.8848 246.3906,794.4941 L246.3906,797.1191 L238.3906,797.1191 Q237.7656,797.1191 237.5,796.8848 Q237.25,796.6504 237.25,796.2598 Q237.25,795.8848 237.5156,795.6504 Q237.7813,795.416 238.3906,795.416 L238.6563,795.416 L238.6563,788.7598 L238.3906,788.7598 Q237.7656,788.7598 237.5,788.5254 Q237.25,788.291 237.25,787.9004 Q237.25,787.5254 237.5,787.291 Q237.7656,787.0566 238.3906,787.0566 L246.0156,787.0566 L246.0156,789.6504 Q246.0156,790.2598 245.7813,790.5254 Q245.5625,790.7754 245.1719,790.7754 Q244.7969,790.7754 244.5625,790.5254 Q244.3281,790.2598 244.3281,789.6504 L244.3281,788.7598 L240.3594,788.7598 L240.3594,791.2129 L241.8438,791.2129 Q241.8438,790.5566 241.9688,790.3691 Q242.2344,789.9629 242.7031,789.9629 Q243.0781,789.9629 243.3125,790.2285 Q243.5469,790.4785 243.5469,791.0879 L243.5469,793.0566 Q243.5469,793.6035 243.4219,793.791 Q243.1563,794.1816 242.7031,794.1816 Q242.2344,794.1816 241.9688,793.7754 Q241.8438,793.5879 241.8438,792.916 L240.3594,792.916 Z " fill="#000000"/><text fill="#000000" font-family="Verdana" font-size="14" lengthAdjust="spacing" textLength="45" x="253.5" y="797.687">Colors</text><line style="stroke:#000000;stroke-width:1.0;" x1="229.5" x2="300.5" y1="806.1191" y2="806.1191"/><line style="stroke:#000000;stroke-width:1.0;" x1="229.5" x2="300.5" y1="814.1191" y2="814.1191"/></g><!--MD5=[a1ef4315b1fb7dbe550eb4aa395e704b]
link Session to Game--><g id="link_Session_Game"><path codeLine="18" d="M282.678,109.4877 C282.678,109.4877 409.64,231.0291 454.38,273.8491 " fill="none" id="Session-Game" style="stroke:#000000;stroke-width:1.0;"/><polygon fill="#000000" points="463.87,282.9391,460.1283,273.8287,460.2557,279.4841,454.6003,279.6116,463.87,282.9391" style="stroke:#000000;stroke-width:1.0;"/><line style="stroke:#000000;stroke-width:1.0;" x1="460.2557" x2="454.485" y1="279.4841" y2="273.9491"/><polygon fill="#000000" points="274.01,101.1891,275.5778,108.2277,282.678,109.4877,281.1102,102.4491,274.01,101.1891" style="stroke:#000000;stroke-width:1.0;"/></g><!--MD5=[7fe99a2f5f36c6b6a1cf23346efc3e3d]
link Session to State--><g id="link_Session_State"><path codeLine="19" d="M213.6687,108.3266 C213.6687,108.3266 170.31,140.2191 151.13,154.3291 " fill="none" id="Session-State" style="stroke:#000000;stroke-width:1.0;"/><polygon fill="#000000" points="140.63,162.0591,150.2504,159.95,144.6582,159.0971,145.5111,153.5049,140.63,162.0591" style="stroke:#000000;stroke-width:1.0;"/><line style="stroke:#000000;stroke-width:1.0;" x1="144.6582" x2="151.105" y1="159.0971" y2="154.3541"/><polygon fill="#000000" points="223.33,101.2091,216.1268,101.5474,213.6687,108.3266,220.8718,107.9883,223.33,101.2091" style="stroke:#000000;stroke-width:1.0;"/></g><!--MD5=[5c866132597f1002530498318b9b4261]
link Session to Registry--><g id="link_Session_Registry"><path codeLine="20" d="M252,113.4591 C252,113.4591 252,137.8991 252,148.7891 " fill="none" id="Session-Registry" style="stroke:#000000;stroke-width:1.0;"/><polygon fill="#000000" points="252,161.8091,256,152.8091,252,156.8091,248,152.8091,252,161.8091" style="stroke:#000000;stroke-width:1.0;"/><line style="stroke:#000000;stroke-width:1.0;" x1="252" x2="252" y1="156.8091" y2="148.8091"/><polygon fill="#000000" points="252,101.4591,248,107.4591,252,113.4591,256,107.4591,252,101.4591" style="stroke:#000000;stroke-width:1.0;"/></g><!--MD5=[04ee8f1a549f099cd30b455604f649af]
link State to StateValue--><g id="link_State_StateValue"><path codeLine="21" d="M102.9758,217.6834 C102.9758,217.6834 92.86,254.1191 88.39,270.2491 " fill="none" id="State-StateValue" style="stroke:#000000;stroke-width:1.0;"/><polygon fill="#000000" points="84.88,282.9291,91.1379,275.324,86.2151,278.1107,83.4284,273.1878,84.88,282.9291" style="stroke:#000000;stroke-width:1.0;"/><line style="stroke:#000000;stroke-width:1.0;" x1="86.2151" x2="88.355" y1="278.1107" y2="270.4041"/><polygon fill="#000000" points="106.18,206.1191,100.7231,210.8332,102.9758,217.6834,108.4326,212.9694,106.18,206.1191" style="stroke:#000000;stroke-width:1.0;"/><text fill="#000000" font-family="Verdana" font-size="13" lengthAdjust="spacing" textLength="8" x="98" y="250.189">1</text></g><!--MD5=[db977fde1dffe77f35d3c97fd6977988]
link Registry to Memento--><g id="link_Registry_Memento"><path codeLine="22" d="M230.9814,216.308 C230.9814,216.308 178.86,290.7591 149,327.1191 C134.69,344.5491 117.71,363.0491 103.44,378.0591 " fill="none" id="Registry-Memento" style="stroke:#000000;stroke-width:1.0;"/><polygon fill="#000000" points="94.05,387.8291,103.1692,384.1088,97.5135,384.223,97.3993,378.5673,94.05,387.8291" style="stroke:#000000;stroke-width:1.0;"/><line style="stroke:#000000;stroke-width:1.0;" x1="97.5135" x2="103.055" y1="384.223" y2="378.4541"/><polygon fill="none" points="237.75,206.3991,231.0627,209.0974,230.9814,216.308,237.6686,213.6098,237.75,206.3991" style="stroke:#000000;stroke-width:1.0;"/><text fill="#000000" font-family="Verdana" font-size="13" lengthAdjust="spacing" textLength="214" x="182" y="310.689">1..MAX_NUMBER_OF_ATTEMPTS</text></g><!--MD5=[fdf6d1042984e3ca3047a66541a3518a]
link Registry to Game--><g id="link_Registry_Game"><path codeLine="23" d="M293.3,206.1191 C336.84,228.2691 404.91,262.8791 447.41,284.4991 " fill="none" id="Registry-to-Game" style="stroke:#000000;stroke-width:1.0;"/><polygon fill="#000000" points="451.95,286.7991,445.7474,279.1488,447.4951,284.5289,442.115,286.2766,451.95,286.7991" style="stroke:#000000;stroke-width:1.0;"/></g><!--MD5=[1bf1c34a41cb0a59bb605ef2b1ac6311]
link Memento to ProposedCombination--><g id="link_Memento_ProposedCombination"><path codeLine="24" d="M97.7013,441.6834 C97.7013,441.6834 145.67,501.0391 165.55,525.6291 " fill="none" id="Memento-ProposedCombination" style="stroke:#000000;stroke-width:1.0;"/><polygon fill="#000000" points="173.82,535.8591,171.2755,526.3447,170.6778,531.9698,165.0526,531.3722,173.82,535.8591" style="stroke:#000000;stroke-width:1.0;"/><line style="stroke:#000000;stroke-width:1.0;" x1="170.6778" x2="165.65" y1="531.9698" y2="525.7491"/><polygon fill="none" points="90.16,432.3491,90.8192,439.53,97.7013,441.6834,97.0421,434.5025,90.16,432.3491" style="stroke:#000000;stroke-width:1.0;"/></g><!--MD5=[a3d9833cad7499a0e9d67c6fecf0d94b]
link Game to Memento--><g id="link_Game_Memento"><path codeLine="25" d="M451.83,319.2191 C443.18,322.1691 433.83,325.0291 425,327.1191 C326.82,350.3191 297.48,331.1291 200,357.1191 C173.13,364.2791 144.36,375.7291 121.01,386.0491 " fill="none" id="Game-to-Memento" style="stroke:#000000;stroke-width:1.0;stroke-dasharray:7.0,7.0;"/><polygon fill="#000000" points="116.42,388.0991,126.2688,388.0792,120.9849,386.0592,123.0049,380.7753,116.42,388.0991" style="stroke:#000000;stroke-width:1.0;"/></g><!--MD5=[0fc51ad3fdfcf6453b1e0f8b19e98430]
link Game to Result--><g id="link_Game_Result"><path codeLine="26" d="M482.7699,339.4029 C482.7699,339.4029 480.42,363.6291 479.35,374.6491 " fill="none" id="Game-Result" style="stroke:#000000;stroke-width:1.0;"/><polygon fill="#000000" points="478.07,387.8091,482.9223,379.2385,478.5539,382.8326,474.9598,378.4643,478.07,387.8091" style="stroke:#000000;stroke-width:1.0;"/><line style="stroke:#000000;stroke-width:1.0;" x1="478.5539" x2="479.325" y1="382.8326" y2="374.8691"/><polygon fill="#000000" points="483.93,327.4591,479.3687,333.0443,482.7699,339.4029,487.3312,333.8177,483.93,327.4591" style="stroke:#000000;stroke-width:1.0;"/></g><!--MD5=[946164e5d44554f35a8e38217ba623f1]
link Game to SecretCombination--><g id="link_Game_SecretCombination"><path codeLine="27" d="M510.0919,337.0345 C510.0919,337.0345 544.65,401.0891 530,432.1191 C526.33,439.8891 520.83,446.8791 514.59,453.0091 " fill="none" id="Game-SecretCombination" style="stroke:#000000;stroke-width:1.0;"/><polygon fill="#000000" points="504.34,461.9291,513.755,459.0382,508.1117,458.6467,508.5032,453.0035,504.34,461.9291" style="stroke:#000000;stroke-width:1.0;"/><line style="stroke:#000000;stroke-width:1.0;" x1="508.1117" x2="514.145" y1="458.6467" y2="453.3991"/><polygon fill="#000000" points="503.26,327.1691,503.3875,334.3791,510.0919,337.0345,509.9644,329.8245,503.26,327.1691" style="stroke:#000000;stroke-width:1.0;"/></g><!--MD5=[3f299a0d1a1224c7ca956914287be965]
link Game to ProposedCombination--><g id="link_Game_ProposedCombination"><path codeLine="28" d="M440.2497,318.1306 C440.2497,318.1306 214.55,378.9591 207,388.1191 C175.99,425.7191 178.37,485.2691 183.94,522.7091 " fill="none" id="Game-ProposedCombination" style="stroke:#000000;stroke-width:1.0;"/><polygon fill="#000000" points="186.16,535.8891,188.6001,526.3474,185.3246,530.9594,180.7126,527.6839,186.16,535.8891" style="stroke:#000000;stroke-width:1.0;"/><line style="stroke:#000000;stroke-width:1.0;" x1="185.3246" x2="183.995" y1="530.9594" y2="523.0691"/><polygon fill="none" points="451.85,315.0591,445.0261,312.7281,440.2497,318.1306,447.0737,320.4616,451.85,315.0591" style="stroke:#000000;stroke-width:1.0;"/><text fill="#000000" font-family="Verdana" font-size="13" lengthAdjust="spacing" textLength="214" x="208" y="415.689">0..MAX_NUMBER_OF_ATTEMPTS</text></g><!--MD5=[f1ebc137e6a9f6f8e77dd5534cd28514]
link SecretCombination to Combination--><g id="link_SecretCombination_Combination"><path codeLine="29" d="M474.57,506.3191 C482.62,536.8891 491.87,593.3891 463,627.1191 C439.17,654.9591 345.51,667.8191 276.26,673.6091 " fill="none" id="SecretCombination-to-Combination" style="stroke:#000000;stroke-width:1.0;"/><polygon fill="none" points="276.58,680.6091,256.1,675.1591,275.51,666.6491,276.58,680.6091" style="stroke:#000000;stroke-width:1.0;"/></g><!--MD5=[a12185d14360d02d777dd92abc80c0d6]
link ProposedCombination to Combination--><g id="link_ProposedCombination_Combination"><path codeLine="30" d="M192.24,580.1191 C193.15,595.7391 194.44,617.5691 195.56,636.6591 " fill="none" id="ProposedCombination-to-Combination" style="stroke:#000000;stroke-width:1.0;"/><polygon fill="none" points="202.57,636.5491,196.75,656.9291,188.59,637.3691,202.57,636.5491" style="stroke:#000000;stroke-width:1.0;"/></g><!--MD5=[763fa03a03bd236af04f06a7f8bd2c9c]
link Combination to Colors--><g id="link_Combination_Colors"><path codeLine="31" d="M190.1457,713.0602 C190.1457,713.0602 189.78,737.8591 195,748.1191 C200.14,758.2291 208.34,766.8191 217.34,773.8891 " fill="none" id="Combination-Colors" style="stroke:#000000;stroke-width:1.0;"/><polygon fill="#000000" points="228.14,781.5091,223.0927,773.0519,224.0547,778.6264,218.4803,779.5884,228.14,781.5091" style="stroke:#000000;stroke-width:1.0;"/><line style="stroke:#000000;stroke-width:1.0;" x1="224.0547" x2="217.515" y1="778.6264" y2="774.0191"/><polygon fill="none" points="191.9,701.1891,187.0658,706.5399,190.1457,713.0602,194.9799,707.7094,191.9,701.1891" style="stroke:#000000;stroke-width:1.0;"/><text fill="#000000" font-family="Verdana" font-size="13" lengthAdjust="spacing" textLength="127" x="196" y="745.189">MAX_COLORS_NUM</text></g><!--MD5=[e5f5ddb86c2d1c78187f87691c5f0c98]
link Result to Colors--><g id="link_Result_Colors"><path codeLine="32" d="M428.9107,433.1655 C428.9107,433.1655 371.02,460.7391 370,462.1191 C293.89,565.6191 391.62,636.4991 328,748.1191 C323.51,756.0091 317.28,763.1591 310.47,769.4391 " fill="none" id="Result-Colors" style="stroke:#000000;stroke-width:1.0;"/><polygon fill="#000000" points="300.23,778.0091,309.6994,775.3017,304.0648,774.8007,304.5658,769.166,300.23,778.0091" style="stroke:#000000;stroke-width:1.0;"/><line style="stroke:#000000;stroke-width:1.0;" x1="304.0648" x2="310.2" y1="774.8007" y2="769.6691"/><polygon fill="none" points="439.77,428.0591,432.6382,426.9926,428.9107,433.1655,436.0425,434.2321,439.77,428.0591" style="stroke:#000000;stroke-width:1.0;"/><text fill="#000000" font-family="Verdana" font-size="13" lengthAdjust="spacing" textLength="127" x="349" y="624.189">MAX_COLORS_NUM</text></g><!--MD5=[9b5cddcdba0f3590f5210c2fb5637c7f]
link Result to ProposedCombination--><g id="link_Result_ProposedCombination"><path codeLine="33" d="M439.62,423.2491 C395.08,438.1191 325.35,461.4291 324,462.1191 C285.62,481.7091 245.97,511.4991 220.06,532.4791 " fill="none" id="Result-to-ProposedCombination" style="stroke:#000000;stroke-width:1.0;stroke-dasharray:7.0,7.0;"/><polygon fill="#000000" points="216.02,535.7691,225.5274,533.1983,219.9006,532.6162,220.4827,526.9894,216.02,535.7691" style="stroke:#000000;stroke-width:1.0;"/></g><!--MD5=[939619e5b4ccce19fe740a47f67e5444]
@startuml analysis-models-core
!theme plain
top to bottom direction

package models{
    class Session
    class State
    Enum StateValue
    class Game
    class Registry
    class Memento
    class Result
    class Combination
    class ProposedCombination
    class SecretCombination
    Enum Colors
}

Session *- -> Game
Session *-down-> State
Session *-down-> Registry
State *-down-> StateValue :1
Registry o- -> Memento :1..MAX_NUMBER_OF_ATTEMPTS
Registry - -> Game
Memento o- -> ProposedCombination
Game ..> Memento
Game *- -> Result
Game *- -> SecretCombination
Game o- -> ProposedCombination :0..MAX_NUMBER_OF_ATTEMPTS
SecretCombination -down-|> Combination
ProposedCombination -down-|> Combination
Combination o-down-> Colors :MAX_COLORS_NUM
Result o- -> Colors :MAX_COLORS_NUM
Result ..> ProposedCombination


@enduml

@startuml analysis-models-core







<style>
  root {
    BackgroundColor white
    FontColor black
    FontName Verdana
    HyperLinkColor blue
    LineColor black
    LineThickness 1
    Margin 5
  }
  caption {
    LineThickness 0
  }
  footer {
    LineThickness 0
  }
  header {
    LineThickness 0
  }
  node {
    MaximumWidth 300
  }
  title {
    FontSize 22
    LineThickness 0
  }
</style>

skinparam ArrowLollipopColor black
skinparam BackgroundColor white
skinparam DefaultFontName Verdana
skinparam DefaultMonospacedFontName Courier
skinparam LifelineStrategy nosolid
skinparam ParticipantPadding 10
skinparam SequenceLifeLineBorderColor black
skinparam Shadowing false
skinparam UseBetaStyle true

skinparam Activity {
  BackgroundColor white
  BarColor black
  BorderColor black
  FontColor black
  FontName Verdana
}
skinparam Boundary {
  FontColor black
}
skinparam Box {
  Padding 5
}
skinparam CircledCharacter {
  FontColor black
  FontName Courier
  Radius 9
}
skinparam Class {
  BackgroundColor white
  BorderColor black
  FontColor black
  FontName Verdana
}
skinparam ClassAttribute {
  FontColor black
  FontName Verdana
}
skinparam ClassStereotype {
  FontColor black
  FontName Verdana
}
skinparam Footer {
  FontColor black
  FontName Verdana
}
skinparam Header {
  FontColor black
  FontName Verdana
}
skinparam Hyperlink {
  Color blue
}
skinparam IconPackage {
  Color black
  BackgroundColor white
}
skinparam IconPrivate {
  Color black
  BackgroundColor white
}
skinparam IconProtected {
  Color black
  BackgroundColor white
}
skinparam IconPublic {
  Color black
  BackgroundColor white
}
skinparam Note {
  FontColor black
  FontName Verdana
}
skinparam Object {
  BorderColor black
}
skinparam Package {
  BorderColor black
  FontColor black
  FontName Verdana
}
skinparam State {
  BackgroundColor white
  BorderColor black
}
skinparam StereotypeA {
  BackgroundColor white
  BorderColor black
}
skinparam StereotypeC {
  BackgroundColor white
  BorderColor black
}
skinparam StereotypeE {
  BackgroundColor white
  BorderColor black
}
skinparam StereotypeI {
  BackgroundColor white
  BorderColor black
}
skinparam StereotypeN {
  BackgroundColor white
  BorderColor black
}
skinparam UseCaseStereoType {
  FontColor black
  FontName Verdana
}
top to bottom direction

package models{
    class Session
    class State
    Enum StateValue
    class Game
    class Registry
    class Memento
    class Result
    class Combination
    class ProposedCombination
    class SecretCombination
    Enum Colors
}

Session *- -> Game
Session *-down-> State
Session *-down-> Registry
State *-down-> StateValue :1
Registry o- -> Memento :1..MAX_NUMBER_OF_ATTEMPTS
Registry - -> Game
Memento o- -> ProposedCombination
Game ..> Memento
Game *- -> Result
Game *- -> SecretCombination
Game o- -> ProposedCombination :0..MAX_NUMBER_OF_ATTEMPTS
SecretCombination -down-|> Combination
ProposedCombination -down-|> Combination
Combination o-down-> Colors :MAX_COLORS_NUM
Result o- -> Colors :MAX_COLORS_NUM
Result ..> ProposedCombination


@enduml

PlantUML version 1.2022.7(Mon Aug 22 12:01:30 CDT 2022)
(GPL source distribution)
Java Runtime: Java(TM) SE Runtime Environment
JVM: Java HotSpot(TM) 64-Bit Server VM
Default Encoding: Cp1252
Language: es
Country: MX
--></g></svg>